<?xml version="1.0" encoding="UTF-8"?>
<!DOCTYPE svg PUBLIC "-//W3C//DTD SVG 1.1//EN" "http://www.w3.org/Graphics/SVG/1.1/DTD/svg11.dtd">
<!-- Creator: CorelDRAW 2018 (64 Bit) -->
<svg xmlns="http://www.w3.org/2000/svg" xml:space="preserve" width="45.5942mm" height="51.4324mm" version="1.1" style="shape-rendering:geometricPrecision; text-rendering:geometricPrecision; image-rendering:optimizeQuality; fill-rule:evenodd; clip-rule:evenodd"
viewBox="0 0 11.2305 12.6685"
 xmlns:xlink="http://www.w3.org/1999/xlink">
 <defs>
  <style type="text/css">
   <![CDATA[
    .fil2 {fill:#165689}
    .fil0 {fill:#FC5200;fill-rule:nonzero}
    .fil1 {fill:white;fill-rule:nonzero}
   ]]>
  </style>
 </defs>
 <g id="Camada_x0020_1">
  <metadata id="CorelCorpID_0Corel-Layer"/>
  <path class="fil0" d="M6.1076 0.1358l2.3143 1.3361 0.001 0 2.315 1.3366c0.1553,0.0897 0.278,0.2125 0.3624,0.3586l0 0.001c0.0849,0.1471 0.1303,0.3148 0.1303,0.493l0 5.3462c0,0.1782 -0.0453,0.3459 -0.1303,0.493l0 0.001c-0.0843,0.1461 -0.2071,0.2689 -0.3624,0.3586l-2.315 1.3366 -0.001 0 -2.3143 1.3361 0.0002 0.0004c-0.1563,0.0903 -0.3244,0.1354 -0.4926,0.1354 -0.1683,0 -0.3363,-0.0451 -0.4926,-0.1354l0.0002 -0.0004 -2.3143 -1.3361 -0.001 0 -2.315 -1.3366c-0.1553,-0.0897 -0.278,-0.2125 -0.3624,-0.3586l0 -0.001c-0.0849,-0.1471 -0.1303,-0.3148 -0.1303,-0.493l0 -5.3462c0,-0.1782 0.0453,-0.3459 0.1303,-0.493l0 -0.001c0.0843,-0.1461 0.2071,-0.2689 0.3624,-0.3586l2.315 -1.3366 0.001 0 2.3143 -1.3361 -0.0002 -0.0004c0.1563,-0.0903 0.3244,-0.1354 0.4926,-0.1354 0.1683,0 0.3363,0.0451 0.4926,0.1354l-0.0002 0.0004zm2.0692 1.761l-2.3143 -1.3361 -0.001 0c-0.0786,-0.0454 -0.1626,-0.0681 -0.2463,-0.0681 -0.0837,0 -0.1677,0.0227 -0.2463,0.0681l-0.001 0 -2.3143 1.3361 0.0002 0.0004 -2.315 1.3366c-0.0797,0.046 -0.1418,0.1075 -0.1834,0.1796l-0.0004 -0.0002c-0.0407,0.0709 -0.0625,0.1552 -0.0625,0.2479l0 5.3462c0,0.0928 0.0218,0.177 0.0625,0.2479l0.0004 -0.0002c0.0416,0.0721 0.1037,0.1336 0.1834,0.1796l2.315 1.3366 -0.0002 0.0004 2.3143 1.3361 0.001 0c0.0786,0.0454 0.1626,0.0681 0.2463,0.0681 0.0837,0 0.1677,-0.0227 0.2463,-0.0681l0.001 0 2.3143 -1.3361 -0.0002 -0.0004 2.315 -1.3366c0.0797,-0.046 0.1418,-0.1075 0.1834,-0.1796l0.0004 0.0002c0.0407,-0.0709 0.0625,-0.1552 0.0625,-0.2479l0 -5.3462c0,-0.0928 -0.0218,-0.177 -0.0625,-0.2479l-0.0004 0.0002c-0.0416,-0.0721 -0.1037,-0.1336 -0.1834,-0.1796l-2.315 -1.3366 0.0002 -0.0004z"/>
  <path class="fil1" d="M8.1768 1.8968l-2.3143 -1.3361 -0.001 0c-0.0786,-0.0454 -0.1626,-0.0681 -0.2463,-0.0681 -0.0837,0 -0.1677,0.0227 -0.2463,0.0681l-0.001 0 -2.3143 1.3361 0.0002 0.0004 -2.315 1.3366c-0.0797,0.046 -0.1418,0.1075 -0.1834,0.1796l-0.0004 -0.0002c-0.0407,0.0709 -0.0625,0.1552 -0.0625,0.2479l0 5.3462c0,0.0928 0.0218,0.177 0.0625,0.2479l0.0004 -0.0002c0.0416,0.0721 0.1037,0.1336 0.1834,0.1796l2.315 1.3366 -0.0002 0.0004 2.3143 1.3361 0.001 0c0.0786,0.0454 0.1626,0.0681 0.2463,0.0681 0.0837,0 0.1677,-0.0227 0.2463,-0.0681l0.001 0 2.3143 -1.3361 -0.0002 -0.0004 2.315 -1.3366c0.0797,-0.046 0.1418,-0.1075 0.1834,-0.1796l0.0004 0.0002c0.0407,-0.0709 0.0625,-0.1552 0.0625,-0.2479l0 -5.3462c0,-0.0928 -0.0218,-0.177 -0.0625,-0.2479l-0.0004 0.0002c-0.0416,-0.0721 -0.1037,-0.1336 -0.1834,-0.1796l-2.315 -1.3366 0.0002 -0.0004z"/>
  <path class="fil0" d="M9.1271 7.8388c-0.4754,0 -0.8622,-0.4026 -0.8622,-0.8975 0,-0.3468 0.19,-0.6482 0.4672,-0.7976l0.2913 0.8338c0.0158,0.0453 0.0583,0.0737 0.1037,0.0737 0.012,0 0.0242,-0.002 0.0362,-0.0062 0.0573,-0.02 0.0874,-0.0826 0.0674,-0.1399l-0.2932 -0.8394c0.061,-0.0143 0.1245,-0.0219 0.1896,-0.0219 0.4754,0 0.8621,0.4026 0.8621,0.8975 0,0.4949 -0.3868,0.8975 -0.8621,0.8975zm-1.7944 -1.1167l-0.4733 -1.2526 1.4745 0 -1.0012 1.2526zm-0.5393 0.1093c-0.0309,-0.3258 -0.1979,-0.6109 -0.4414,-0.7939l0.3188 -0.4456 0.4684 1.2395 -0.3458 0zm-0.2209 0l-0.7885 0 0.4402 -0.6153c0.188,0.143 0.3186,0.3631 0.3483,0.6153zm-0.8557 1.0073c-0.4754,0 -0.8622,-0.4026 -0.8622,-0.8975 0,-0.4948 0.3868,-0.8975 0.8622,-0.8975 0.1115,0 0.2181,0.0221 0.316,0.0624l-0.5518 0.7712c-0.024,0.0335 -0.0272,0.0775 -0.0084,0.1141 0.0188,0.0366 0.0565,0.0596 0.0977,0.0596l1.0022 0c-0.0522,0.4433 -0.416,0.7877 -0.8557,0.7877zm3.4104 -2.0147c-0.0904,0 -0.1783,0.0116 -0.2623,0.0333l-0.2917 -0.8351 0.4854 0c0.0728,0 0.1321,0.0593 0.1321,0.1321l0 0.0905c0,0.0728 -0.0593,0.132 -0.1321,0.132 -0.0607,0 -0.1098,0.0492 -0.1098,0.1098 0,0.0607 0.0491,0.1098 0.1098,0.1098 0.194,0 0.3517,-0.1578 0.3517,-0.3517l0 -0.0905c0,-0.1939 -0.1578,-0.3517 -0.3517,-0.3517l-0.6305 0c-0.0607,0 -0.1099,0.0492 -0.1099,0.1098 0,0.0047 0.0004,0.0093 0.001,0.0138 -0.0021,0.0163 -0.0006,0.0334 0.0052,0.05l0.0956 0.2736 -1.6435 0 -0.1349 -0.357 0.2509 -0.0189c0.0576,-0.0044 0.1019,-0.0525 0.1016,-0.1102 -0.0004,-0.0578 -0.0454,-0.1053 -0.103,-0.1089l-0.7176 -0.0446c-0.0303,-0.0019 -0.0599,0.0088 -0.082,0.0296 -0.0221,0.0208 -0.0346,0.0497 -0.0346,0.08l0 0.0986c0,0.0306 0.0127,0.0598 0.0351,0.0805 0.0204,0.0189 0.0471,0.0293 0.0747,0.0293 0.0028,0 0.0055,-0.0001 0.0083,-0.0003l0.2383 -0.0179 0.1643 0.4349 -0.4142 0.5788c-0.1362,-0.064 -0.2874,-0.0997 -0.4465,-0.0997 -0.5965,0 -1.0819,0.5012 -1.0819,1.1172 0,0.616 0.4853,1.1172 1.0819,1.1172 0.5607,0 1.023,-0.4427 1.0766,-1.0073l0.5041 0c0.0002,0 0.0004,0 0.0007,0 0.0017,0 0.0035,-0 0.0052,-0.0001 0.025,-0.0012 0.0478,-0.0107 0.0657,-0.0259 0.0034,-0.0029 0.0067,-0.006 0.0098,-0.0093 0,-0 0,-0.0001 0,-0.0001 0,0 0,-0 0,-0 0.002,-0.0021 0.0038,-0.0044 0.0056,-0.0066l1.1481 -1.4364 0.1263 0.3616c-0.3628,0.1805 -0.6137,0.5641 -0.6137,1.007 0,0.616 0.4853,1.1172 1.0819,1.1172 0.5965,0 1.0818,-0.5011 1.0818,-1.1172 0,-0.616 -0.4853,-1.1172 -1.0818,-1.1172z"/>
  <path class="fil2" d="M2.0355 6.2638c-0.2442,-0.3875 -0.1925,-0.6056 0.3103,-0.5704l0.0267 0.2999c0.0563,-0.0251 0.346,-0.1521 0.3725,-0.1657 -0.2587,-0.1346 -0.1957,0.0114 -0.3391,-0.2079 0.1798,-0.2233 0.2992,-0.1039 0.4676,0.0629 0.2699,0.2673 0.2719,0.1364 0.58,0.258 -0.1104,-0.2615 -0.1467,-0.0458 -0.2289,-0.2849 -0.0922,-0.268 0.0727,0.1287 -0.0178,-0.1127 -0.1804,0.1421 -0.0964,0.1467 -0.27,0.0745 -0.0647,-0.1772 -0.0503,-0.0603 0.0573,-0.2581 -0.2149,0.0121 -0.3277,0.1092 -0.531,-0.0895l-0.1385 0.2605c-0.2303,0.0011 -0.0525,0.0603 -0.2526,-0.1154 -0.0631,0.218 -0.2101,0.3606 -0.4503,0.2917 0.0766,0.3101 0.2643,0.1804 0.0777,0.6188l0.2458 -0.0345c0.2014,0.2846 0.1621,0.3287 0.1322,0.6785 -0.1852,-0.0953 -0.6926,-0.7223 -0.722,-0.9622 -0.0461,-0.3758 0.2326,-0.8462 0.6073,-0.9577 1.3166,-0.3921 2.0891,0.7417 1.5881,1.0525 -0.7177,0.258 -1.2159,-0.3422 -1.1896,0.795l-0.1348 0.0612c-0.0167,-0.3371 0.0922,-0.51 -0.1908,-0.6945zm-0.713 1.7946l1.5437 0 0.1472 -0.4385c0.3854,-0.067 0.6392,0.1024 0.9348,-0.0723 0.0451,-0.1287 -0.0474,-0.3297 0.1077,-0.582 0.051,-0.4117 -0.245,-0.1524 0.2371,-0.4763 -0.1794,-0.4123 -0.32,-0.2244 -0.3567,-0.8037 -0.0697,-1.1021 -1.4575,-1.261 -2.1655,-0.9072 -1.4995,0.7491 -0.2901,2.0769 -0.2597,2.1399 0.1523,0.3154 -0.0585,0.8263 -0.1886,1.1401z"/>
 </g>
</svg>
