<?xml version="1.0" encoding="UTF-8"?>
<!DOCTYPE svg PUBLIC "-//W3C//DTD SVG 1.1//EN" "http://www.w3.org/Graphics/SVG/1.1/DTD/svg11.dtd">
<!-- Creator: CorelDRAW 2018 (64 Bit) -->
<svg xmlns="http://www.w3.org/2000/svg" xml:space="preserve" width="53.9079mm" height="104.777mm" version="1.1" style="shape-rendering:geometricPrecision; text-rendering:geometricPrecision; image-rendering:optimizeQuality; fill-rule:evenodd; clip-rule:evenodd"
viewBox="0 0 22.8361 44.3849"
 xmlns:xlink="http://www.w3.org/1999/xlink">
 <defs>
  <style type="text/css">
   <![CDATA[
    .fil2 {fill:#FC5200}
    .fil3 {fill:black;fill-rule:nonzero}
    .fil0 {fill:#165689;fill-rule:nonzero}
    .fil4 {fill:#FC5200;fill-rule:nonzero}
    .fil1 {fill:white;fill-rule:nonzero}
   ]]>
  </style>
 </defs>
 <g id="Camada_x0020_1">
  <metadata id="CorelCorpID_0Corel-Layer"/>
  <g id="_2127537051584">
   <path class="fil0" d="M12.2649 0.2336l3.9801 2.2979 0.0017 0 3.9814 2.2986c0.2671,0.1542 0.4781,0.3655 0.6232,0.6167l0 0.0017c0.1461,0.2531 0.224,0.5414 0.224,0.8479l0 9.1945c0,0.3065 -0.078,0.5949 -0.224,0.8479l0 0.0017c-0.145,0.2512 -0.3561,0.4625 -0.6232,0.6167l-3.9814 2.2986 -0.0017 0 -3.9801 2.2979 0.0004 0.0007c-0.2689,0.1553 -0.5579,0.2329 -0.8472,0.2329 -0.2894,0 -0.5784,-0.0776 -0.8472,-0.2329l0.0004 -0.0007 -3.9801 -2.2979 -0.0017 0 -3.9814 -2.2986c-0.2671,-0.1542 -0.4781,-0.3655 -0.6232,-0.6167l0 -0.0017c-0.1461,-0.2531 -0.224,-0.5414 -0.224,-0.8479l0 -9.1945c0,-0.3065 0.078,-0.5949 0.224,-0.8479l0 -0.0017c0.145,-0.2512 0.3561,-0.4625 0.6232,-0.6167l3.9814 -2.2986 0.0017 0 3.9801 -2.2979 -0.0004 -0.0007c0.2689,-0.1553 0.5579,-0.2329 0.8472,-0.2329 0.2894,0 0.5784,0.0776 0.8472,0.2329l-0.0004 0.0007zm3.5586 3.0286l-3.9801 -2.2979 -0.0017 0c-0.1352,-0.078 -0.2797,-0.1171 -0.4236,-0.1171 -0.1439,0 -0.2884,0.0391 -0.4236,0.1171l-0.0017 0 -3.9801 2.2979 0.0004 0.0007 -3.9814 2.2986c-0.137,0.0791 -0.2438,0.1849 -0.3154,0.3089l-0.0007 -0.0004c-0.0701,0.122 -0.1075,0.2669 -0.1075,0.4264l0 9.1945c0,0.1595 0.0374,0.3045 0.1075,0.4264l0.0007 -0.0004c0.0716,0.124 0.1784,0.2298 0.3154,0.3089l3.9814 2.2986 -0.0004 0.0007 3.9801 2.2979 0.0017 0c0.1352,0.078 0.2797,0.1171 0.4236,0.1171 0.1439,0 0.2884,-0.0391 0.4236,-0.1171l0.0017 0 3.9801 -2.2979 -0.0004 -0.0007 3.9814 -2.2986c0.137,-0.0791 0.2438,-0.1849 0.3154,-0.3089l0.0007 0.0004c0.0701,-0.122 0.1075,-0.2669 0.1075,-0.4264l0 -9.1945c0,-0.1595 -0.0374,-0.3045 -0.1075,-0.4264l-0.0007 0.0004c-0.0716,-0.124 -0.1784,-0.2298 -0.3154,-0.3089l-3.9814 -2.2986 0.0004 -0.0007z"/>
   <path class="fil1" d="M15.8234 3.2622l-3.9801 -2.2979 -0.0017 0c-0.1352,-0.078 -0.2797,-0.1171 -0.4236,-0.1171 -0.1439,0 -0.2884,0.0391 -0.4236,0.1171l-0.0017 0 -3.9801 2.2979 0.0004 0.0007 -3.9814 2.2986c-0.137,0.0791 -0.2438,0.1849 -0.3154,0.3089l-0.0007 -0.0004c-0.0701,0.122 -0.1075,0.2669 -0.1075,0.4264l0 9.1945c0,0.1595 0.0374,0.3045 0.1075,0.4264l0.0007 -0.0004c0.0716,0.124 0.1784,0.2298 0.3154,0.3089l3.9814 2.2986 -0.0004 0.0007 3.9801 2.2979 0.0017 0c0.1352,0.078 0.2797,0.1171 0.4236,0.1171 0.1439,0 0.2884,-0.0391 0.4236,-0.1171l0.0017 0 3.9801 -2.2979 -0.0004 -0.0007 3.9814 -2.2986c0.137,-0.0791 0.2438,-0.1849 0.3154,-0.3089l0.0007 0.0004c0.0701,-0.122 0.1075,-0.2669 0.1075,-0.4264l0 -9.1945c0,-0.1595 -0.0374,-0.3045 -0.1075,-0.4264l-0.0007 0.0004c-0.0716,-0.124 -0.1784,-0.2298 -0.3154,-0.3089l-3.9814 -2.2986 0.0004 -0.0007z"/>
   <path class="fil0" d="M17.4578 13.4812c-0.8176,0 -1.4829,-0.6924 -1.4829,-1.5436 0,-0.5964 0.3267,-1.1148 0.8036,-1.3717l0.501 1.434c0.0272,0.0779 0.1002,0.1267 0.1783,0.1267 0.0206,0 0.0416,-0.0035 0.0623,-0.0106 0.0985,-0.0344 0.1504,-0.1421 0.1159,-0.2406l-0.5043 -1.4436c0.1049,-0.0246 0.2141,-0.0377 0.326,-0.0377 0.8175,0 1.4827,0.6924 1.4827,1.5435 0,0.8512 -0.6652,1.5436 -1.4827,1.5436zm-3.0861 -1.9204l-0.8141 -2.1542 2.5359 0 -1.7218 2.1542zm-0.9275 0.188c-0.0532,-0.5603 -0.3404,-1.0506 -0.7591,-1.3653l0.5483 -0.7663 0.8055 2.1317 -0.5947 0zm-0.3799 0l-1.3561 0 0.7571 -1.0582c0.3233,0.2459 0.5479,0.6244 0.599,1.0582zm-1.4717 1.7324c-0.8176,0 -1.4828,-0.6924 -1.4828,-1.5436 0,-0.851 0.6652,-1.5435 1.4828,-1.5435 0.1918,0 0.3751,0.0381 0.5435,0.1073l-0.9489 1.3262c-0.0412,0.0576 -0.0468,0.1333 -0.0144,0.1963 0.0324,0.063 0.0972,0.1026 0.168,0.1026l1.7236 0c-0.0898,0.7624 -0.7155,1.3546 -1.4717,1.3546zm5.8652 -3.4649c-0.1556,0 -0.3067,0.02 -0.4512,0.0572l-0.5016 -1.4362 0.8348 0c0.1253,0 0.2272,0.1019 0.2272,0.2271l0 0.1556c0,0.1252 -0.1019,0.2271 -0.2272,0.2271 -0.1044,0 -0.1889,0.0846 -0.1889,0.1889 0,0.1043 0.0845,0.1889 0.1889,0.1889 0.3336,0 0.6049,-0.2713 0.6049,-0.6049l0 -0.1556c0,-0.3335 -0.2713,-0.6049 -0.6049,-0.6049l-1.0843 0c-0.1044,0 -0.1889,0.0846 -0.1889,0.1888 0,0.008 0.0007,0.016 0.0017,0.0237 -0.0036,0.0281 -0.001,0.0574 0.0089,0.086l0.1644 0.4705 -2.8266 0 -0.232 -0.6139 0.4316 -0.0325c0.099,-0.0075 0.1753,-0.0903 0.1747,-0.1896 -0.0007,-0.0993 -0.0781,-0.1811 -0.1772,-0.1872l-1.2341 -0.0766c-0.0521,-0.0032 -0.1031,0.0152 -0.1411,0.0509 -0.038,0.0357 -0.0595,0.0855 -0.0595,0.1376l0 0.1696c0,0.0526 0.0219,0.1028 0.0604,0.1385 0.0351,0.0326 0.081,0.0504 0.1284,0.0504 0.0047,0 0.0095,-0.0002 0.0142,-0.0006l0.4098 -0.0308 0.2826 0.7479 -0.7123 0.9955c-0.2342,-0.1101 -0.4943,-0.1714 -0.768,-0.1714 -1.0259,0 -1.8606,0.8619 -1.8606,1.9213 0,1.0595 0.8347,1.9213 1.8606,1.9213 0.9642,0 1.7594,-0.7613 1.8516,-1.7324l0.8669 0c0.0004,0 0.0008,0 0.0011,0 0.003,0 0.006,-0 0.009,-0.0002 0.043,-0.002 0.0822,-0.0184 0.113,-0.0445 0.0059,-0.005 0.0115,-0.0103 0.0168,-0.0161 0,-0.0001 0,-0.0001 0.0001,-0.0001 0,0 0,-0 0,-0 0.0034,-0.0037 0.0066,-0.0075 0.0097,-0.0114l1.9745 -2.4703 0.2172 0.6219c-0.6239,0.3105 -1.0554,0.9702 -1.0554,1.7319 0,1.0595 0.8346,1.9213 1.8606,1.9213 1.0259,0 1.8605,-0.8619 1.8605,-1.9213 0,-1.0594 -0.8346,-1.9213 -1.8605,-1.9213z"/>
   <path class="fil2" d="M5.2617 10.7726c-0.42,-0.6663 -0.331,-1.0415 0.5336,-0.981l0.0459 0.5158c0.0968,-0.0431 0.595,-0.2615 0.6406,-0.285 -0.4448,-0.2314 -0.3366,0.0196 -0.5832,-0.3575 0.3093,-0.384 0.5145,-0.1786 0.8042,0.1082 0.4642,0.4597 0.4676,0.2346 0.9975,0.4438 -0.1899,-0.4497 -0.2522,-0.0788 -0.3936,-0.49 -0.1586,-0.4609 0.1251,0.2214 -0.0307,-0.1938 -0.3103,0.2443 -0.1658,0.2523 -0.4644,0.1282 -0.1112,-0.3048 -0.0865,-0.1038 0.0985,-0.4439 -0.3696,0.0208 -0.5636,0.1878 -0.9133,-0.1539l-0.2381 0.448c-0.3961,0.0019 -0.0904,0.1037 -0.4344,-0.1985 -0.1085,0.375 -0.3614,0.6201 -0.7745,0.5016 0.1317,0.5333 0.4546,0.3102 0.1336,1.0643l0.4228 -0.0594c0.3463,0.4895 0.2789,0.5654 0.2274,1.1669 -0.3185,-0.1639 -1.1911,-1.2422 -1.2418,-1.6548 -0.0793,-0.6464 0.4001,-1.4553 1.0445,-1.6471 2.2643,-0.6743 3.5929,1.2756 2.7312,1.8101 -1.2344,0.4438 -2.0912,-0.5885 -2.046,1.3672l-0.2318 0.1052c-0.0288,-0.5798 0.1585,-0.8772 -0.3281,-1.1944zm-1.2262 3.0864l2.6548 0 0.2532 -0.7541c0.6628,-0.1153 1.0993,0.1761 1.6076,-0.1244 0.0775,-0.2213 -0.0815,-0.567 0.1852,-1.0009 0.0878,-0.708 -0.4213,-0.2621 0.4078,-0.8191 -0.3085,-0.7091 -0.5504,-0.386 -0.6134,-1.3822 -0.1199,-1.8955 -2.5066,-2.1686 -3.7242,-1.5602 -2.5788,1.2883 -0.499,3.5718 -0.4466,3.6803 0.2619,0.5424 -0.1006,1.4211 -0.3244,1.9607z"/>
  </g>
  <g id="_2127537053440">
   <path class="fil3" d="M2.7745 26.1796c-0.8181,-0.5335 -1.7785,-0.5869 -2.7034,-0.3735 -0.0533,0.0355 -0.0711,0.0711 -0.0711,0.1245 0,1.2983 0,2.5967 0,3.895 0,2.0631 0,4.1439 0,6.207 0,0.4802 0,0.9426 0,1.4228 0,0.3735 1.1027,0.9248 1.1027,0.5869 0,-0.658 0,-1.3161 0,-1.9564 0.0356,-0.0178 0.0711,-0.0356 0.0889,-0.0534 1.245,-1.1738 2.0453,-2.7033 2.4366,-4.3751 0.249,-1.0849 0.3201,-2.2054 0.3023,-3.3258 -0.0355,-0.9248 -0.3557,-1.6362 -1.156,-2.152zm0.0533 2.2232c-0.0533,1.7074 -0.3201,3.3614 -1.156,4.8731 -0.16,0.3202 -0.3557,0.6225 -0.5691,0.9071 0,0 0,-0.0178 0,-0.0356 0,-2.0631 0,-4.1439 0,-6.207 0,-0.4446 0,-0.8892 0,-1.3339 0.4268,-0.1067 1.0849,-0.1957 1.4584,0.0355 0.089,0.0534 0.1779,0.3557 0.2135,0.5336 0.0711,0.409 0.0533,0.8181 0.0533,1.2272zm3.0057 7.203c0.5513,0 1.1027,0 1.6362,0 0.1778,0 -0.1423,-0.3912 -0.1779,-0.4268 -0.1067,-0.1245 -0.3912,-0.4802 -0.5869,-0.4802 -0.2846,0 -0.5514,0 -0.8181,0 0,-0.1423 0,-0.2845 0,-0.4268 0.3201,0 0.658,0 0.9782,0 0.0712,0 0.1245,0 0.1956,0 0.1601,0 0.3024,-0.0178 0.4447,-0.1067 0.1067,-0.089 0.1956,-0.249 0.1956,-0.3913 0,-0.1423 -0.0534,-0.2845 -0.1601,-0.3912 -0.1067,-0.1068 -0.2667,-0.2135 -0.4268,-0.2135 -0.409,0 -0.8181,0 -1.2272,0 0,-1.9919 0,-3.9839 0,-5.9758 0,-0.0355 0,-0.0711 0,-0.0889 0.0177,0 0.0177,0 0.0533,0 0.0889,0.0178 0.2134,0 0.3024,0 0.409,0 0.8181,0 1.2272,0 0.1778,0 -0.1423,-0.3912 -0.1779,-0.4268 -0.1067,-0.1245 -0.3912,-0.4802 -0.5869,-0.4802 -0.5514,0 -1.1027,0 -1.654,0 -0.0356,0 -0.0534,0 -0.0356,0.0534 0,2.3476 0,4.6953 0,7.0607 0,0.2134 0,1.2094 0,1.4406 0,0.16 0.2312,0.3912 0.3379,0.498 0.1067,0.1067 0.3202,0.3557 0.4802,0.3557zm1.9386 1.6718c-0.8003,0 -1.6185,0 -2.4188,0 -0.1245,0 -0.2312,0 -0.3379,0 -0.1778,0 -0.3379,0 -0.4802,0.0889 -0.1067,0.0533 -0.2312,0.16 -0.2667,0.2845 -0.0534,0.2846 0.2312,0.498 0.498,0.498 0.8003,0 1.6007,0 2.4188,0 0.1067,0 0.2312,0 0.3379,0 0.1601,0 0.3202,-0.0178 0.4802,-0.0889 0.1067,-0.0534 0.2312,-0.1779 0.249,-0.2846 0.0534,-0.2845 -0.2134,-0.498 -0.4802,-0.498zm5.4601 -2.7567c0.3557,-2.4544 0.4446,-5.2467 -0.9604,-7.4164 -0.3379,-0.5157 -0.7647,-0.9782 -1.3517,-1.2094 -0.6403,-0.2668 -1.3517,-0.2312 -2.0275,-0.0889 0,0 0,0.0177 -0.0178,0.0177 0,0 0,0 0,0.0178 0,1.2627 0,2.5255 0,3.7882 0,2.0097 0,4.0194 0,6.0292 0,0.4624 0,0.9248 0,1.3872 0,0.2312 0.1245,0.4624 0.2134,0.658 0.0711,0.1245 0.1956,0.4268 0.3557,0.4446 0.7825,0.0534 1.6718,-0.1601 2.3476,-0.5691 1.0849,-0.6936 1.2805,-1.903 1.4406,-3.059zm-1.8497 1.8319c-0.5513,0.3912 -1.245,0.6047 -1.9208,0.658 0,-0.907 0,-1.7963 0,-2.6856 0,-2.0097 0,-4.0372 0,-6.0469 0,-0.4446 0,-0.8892 0,-1.3517 0.996,-0.1956 2.1164,-0.1067 2.7922,0.7114 0.1067,0.1067 0.1067,0.1067 0.1601,0.2134 0.0178,0.0178 0.0178,0.0178 0.0178,0.0178 0,0 0,0 0,0.0177 0,-0.0177 0.0355,0.089 0.0355,0.0534 -0.0355,-0.0534 0,0.0356 0.0178,0.0889 0.0178,0 0.0356,0.0889 0.0534,0.1067 0.0178,0.0712 0.0533,0.1957 0.0889,0.3201 0.1245,0.5336 0.1956,1.0849 0.2134,1.6362 0.0712,1.1205 -0.0178,2.241 -0.1778,3.3614 -0.1601,1.0849 -0.3201,2.2232 -1.2805,2.899zm6.6694 -10.102c-0.7114,-0.2846 -1.494,0.409 -1.8675,0.9604 -0.3913,0.6047 -0.658,1.2983 -0.8892,1.992 -0.2668,0.8181 -0.498,1.654 -0.6936,2.4899 -0.1245,0.5869 -0.3557,1.6362 -0.4624,2.2232 -0.0889,0.4624 -0.1779,0.9426 -0.249,1.4228 -0.0356,0.2668 0.4446,0.1779 0.5691,0.1423 0.249,-0.0889 0.5335,-0.2845 0.5869,-0.5513 0.0178,-0.2312 0.0711,-0.4446 0.1067,-0.658 0.6758,0 1.3517,0 2.0097,0 0,0.3557 0,0.7114 0,1.0671 0,0.4447 1.156,0.0178 1.156,-0.409 0,-0.3735 0,-0.7292 0,-1.0849 0,-2.0453 0.0178,-4.4641 0,-6.5094 0,-0.3201 0.1068,-0.9248 -0.2667,-1.0849zm-0.8892 0.7647c0,0 0,0 0,0 0,-0.0178 0.0177,-0.0178 0,0zm-1.6185 5.1933c0.3201,-1.5117 0.6758,-3.0591 1.3339,-4.4641 0.1067,-0.2134 0.1778,-0.3557 0.3023,-0.5336 0,0.1779 0,0.3557 0,0.5336 0,1.4228 0,2.8456 0,4.2684 0,0.3735 0,0.747 0,1.1383 -0.6047,0 -1.2272,0 -1.8319,0 0.0712,-0.3202 0.1245,-0.6225 0.1957,-0.9426zm1.9741 5.0688c-0.8181,0 -1.6184,0 -2.4187,0 -0.1245,0 -0.2312,0 -0.3557,0 -0.1601,0 -0.3202,0 -0.4624,0.0889 -0.1067,0.0533 -0.2312,0.16 -0.2668,0.2845 -0.0534,0.2846 0.2312,0.498 0.498,0.498 0.8003,0 1.6007,0 2.4188,0 0.1067,0 0.2134,0 0.3379,0 0.16,0 0.3201,-0.0178 0.4624,-0.0889 0.1067,-0.0534 0.249,-0.1779 0.2667,-0.2846 0.0534,-0.2845 -0.2312,-0.498 -0.4802,-0.498zm4.8554 0.6402c0.089,-0.0534 0.2846,-0.1245 0.3379,-0.2134 0.0178,-0.0178 0.1245,-0.1067 0.0178,-0.1067 -0.4802,0 -0.9782,0 -1.4762,0 -0.1067,0 -0.498,0.0711 -0.6047,0 0.0534,0.0355 0.0178,-0.0178 0.0356,-0.0889 0.0356,-0.249 0,-0.5336 0,-0.7826 0,-0.4802 0,-0.9426 0,-1.405 0,-2.5433 0,-5.0688 0,-7.6121 0,-0.6402 0,-1.2983 0,-1.9564 0,-0.1067 -0.6047,0.1245 -0.658,0.1423 -0.1067,0.0533 -0.5513,0.1956 -0.5513,0.3735 0,1.3339 0,2.6677 0,4.0017 0,2.1342 0,4.2684 0,6.4026 0,0.4802 0,0.9782 0,1.4584 0.0177,0 0.0177,0.0178 0.0355,0.0178 0.6936,0 1.3872,0 2.0987,0 0.2668,0 0.5335,-0.1245 0.7647,-0.2312z"/>
   <path class="fil4" d="M3.9202 42.2326c0,0.5453 -0.1701,1.0161 -0.5116,1.4144 -0.3698,0.432 -0.8454,0.6486 -1.4246,0.6486 -0.1112,0 -0.277,-0.004 -0.4995,-0.0119 -0.2225,-0.008 -0.3894,-0.0109 -0.5007,-0.0109 -0.1004,0 -0.2509,0.003 -0.4515,0.0109 -0.2018,0.0079 -0.3524,0.0119 -0.4527,0.0119 -0.0534,0 -0.0796,-0.0238 -0.0796,-0.0725 0,-0.2116 0.0087,-0.5304 0.0262,-0.9574 0.0175,-0.4271 0.0261,-0.7469 0.0261,-0.9604 0,-0.2245 -0.0087,-0.5632 -0.0261,-1.0151 -0.0175,-0.4519 -0.0262,-0.7906 -0.0262,-1.0161 0,-0.0407 0.0272,-0.0606 0.0829,-0.0606 0.0796,0 0.1974,0.001 0.3534,0.003 0.1571,0.0019 0.2749,0.003 0.3534,0.003 0.0731,0 0.1833,-0.001 0.3327,-0.003 0.1495,-0.002 0.2618,-0.003 0.3393,-0.003 0.7395,0 1.2904,0.1271 1.6525,0.3814 0.2606,0.1817 0.4614,0.427 0.6043,0.7359 0.1342,0.287 0.2018,0.588 0.2018,0.9018zm-0.7853 0c0,-0.4191 -0.1309,-0.7608 -0.3926,-1.025 -0.2727,-0.2731 -0.636,-0.4102 -1.0919,-0.4102 -0.3763,0 -0.5279,-0.002 -0.456,-0.006 -0.2487,0.0119 -0.3741,0.0536 -0.3741,0.1251 0,0.149 -0.0032,0.3735 -0.0109,0.6714 -0.0076,0.298 -0.0109,0.5214 -0.0109,0.6704 0,0.148 0.0033,0.3695 0.0109,0.6644 0.0077,0.295 0.0109,0.5155 0.0109,0.6635 0,0.0735 0.1287,0.1162 0.384,0.1281 -0.0349,-0.002 0.1211,-0.003 0.4658,-0.003 0.2443,0 0.4396,-0.0229 0.5836,-0.0696 0.1789,-0.0586 0.3403,-0.1658 0.4821,-0.3238 0.2662,-0.295 0.3992,-0.6565 0.3992,-1.0856zm5.5247 0.0199c0,0.5761 -0.2029,1.0717 -0.6075,1.4868 -0.4211,0.4301 -0.9457,0.6456 -1.5718,0.6456 -0.6283,0 -1.1529,-0.2145 -1.5718,-0.6426 -0.4047,-0.4131 -0.6075,-0.9098 -0.6075,-1.4898 0,-0.5731 0.205,-1.0687 0.6141,-1.4858 0.421,-0.432 0.9435,-0.6486 1.5652,-0.6486 0.6239,0 1.1475,0.2166 1.5685,0.6486 0.4069,0.4151 0.6108,0.9108 0.6108,1.4858zm-0.7722 -0.0079c0,-0.3804 -0.1298,-0.7112 -0.3894,-0.9932 -0.2727,-0.299 -0.6141,-0.448 -1.0253,-0.448 -0.4069,0 -0.7461,0.151 -1.0166,0.4539 -0.2553,0.2831 -0.3829,0.6158 -0.3829,0.9952 0,0.3784 0.1276,0.7101 0.3829,0.9932 0.2705,0.3029 0.6097,0.4539 1.0166,0.4539 0.4123,0 0.7559,-0.151 1.0286,-0.4539 0.2574,-0.2831 0.3861,-0.6178 0.3861,-1.0011zm6.382 0.7936c0,0.3377 -0.1112,0.6277 -0.3349,0.8701 -0.2366,0.2543 -0.5366,0.3814 -0.9009,0.3814 -0.1364,0 -0.3414,-0.003 -0.6152,-0.0089 -0.2726,-0.0059 -0.4777,-0.0079 -0.6141,-0.0079 -0.1004,0 -0.2509,0.003 -0.4516,0.0109 -0.2018,0.0079 -0.3523,0.0119 -0.4527,0.0119 -0.0535,0 -0.0796,-0.0219 -0.0796,-0.0665 0,-0.2135 0.0109,-0.5343 0.0327,-0.9624 0.0218,-0.4271 0.0327,-0.7479 0.0327,-0.9614 0,-0.2245 -0.0109,-0.5632 -0.0327,-1.0141 -0.0218,-0.4509 -0.0327,-0.7886 -0.0327,-1.014 0,-0.0427 0.0261,-0.0636 0.0796,-0.0636 0.1898,0 0.4756,0.001 0.8562,0.003 0.3818,0.0019 0.6675,0.003 0.8595,0.003 0.4472,0 0.8039,0.0755 1.07,0.2265 0.3239,0.1847 0.4854,0.4708 0.4854,0.8581 0,0.1341 -0.0425,0.2731 -0.1276,0.4172 -0.0851,0.145 -0.1887,0.2543 -0.3108,0.3277 -0.0611,0.0367 -0.0927,0.0606 -0.0927,0.0725 0,0.0119 0.0316,0.0328 0.0927,0.0636 0.1625,0.0814 0.2923,0.2016 0.3894,0.3595 0.0982,0.1589 0.1472,0.3228 0.1472,0.4936zm-0.8966 -1.6706c0,-0.2722 -0.1342,-0.4569 -0.4025,-0.5512 -0.1614,-0.0566 -0.4265,-0.0844 -0.7952,-0.0844 -0.3578,0 -0.5367,0.0238 -0.5367,0.0725 0,0.0635 -0.0033,0.1599 -0.0098,0.288 -0.0066,0.1271 -0.0098,0.2245 -0.0098,0.29 0,0.0447 0.0011,0.1132 0.0033,0.2066 0.0022,0.0924 0.0033,0.1619 0.0033,0.2086 0,0.0566 0.241,0.0844 0.7221,0.0844 0.6839,0 1.0253,-0.1718 1.0253,-0.5145zm0.0851 1.6428c0,-0.2374 -0.1156,-0.3973 -0.348,-0.4807 -0.1472,-0.0546 -0.3752,-0.0815 -0.6861,-0.0815 -0.5366,0 -0.805,0.0258 -0.805,0.0785l0 0.4778c0,0.0695 0.0022,0.1768 0.0066,0.3198 0.0044,0.144 0.0065,0.2513 0.0065,0.3228 0,0.0199 0.0677,0.0347 0.204,0.0437 0.1364,0.01 0.3381,0.0149 0.6064,0.0149 0.3359,0 0.5781,-0.0397 0.7254,-0.1192 0.1931,-0.1053 0.2901,-0.297 0.2901,-0.576zm4.3838 0.6972c0,0.0308 -0.0087,0.0755 -0.0251,0.1341 -0.0197,0.0745 -0.0316,0.1192 -0.036,0.1351 -0.0055,0.0695 -0.0207,0.1728 -0.0447,0.3069 -0.0098,0.0347 -0.0382,0.0526 -0.0829,0.0526 -0.0207,0 -0.0611,-0.0039 -0.121,-0.0119 -0.2618,-0.0348 -0.6676,-0.0527 -1.2162,-0.0527 -0.156,0 -0.3894,0.004 -0.7024,0.0119 -0.313,0.0079 -0.5476,0.0119 -0.7025,0.0119 -0.0709,0 -0.1058,-0.0278 -0.1058,-0.0844 0,-0.2175 0.0131,-0.5433 0.0393,-0.9793 0.0262,-0.435 0.0393,-0.7618 0.0393,-0.9793 0,-0.2205 -0.0131,-0.6327 -0.0393,-1.2365 -0.0044,-0.155 -0.0164,-0.3864 -0.036,-0.6953l-0.0033 -0.0407c-0.0022,-0.0447 0.0251,-0.0665 0.0829,-0.0665 0.1494,0 0.373,0.004 0.6719,0.0119 0.2978,0.0069 0.5225,0.0109 0.6708,0.0109 0.1429,0 0.3567,-0.004 0.6414,-0.0109 0.2847,-0.008 0.4985,-0.0119 0.6413,-0.0119 0.1004,0 0.1549,0.0278 0.1625,0.0844 0.0448,0.2543 0.0677,0.4132 0.0677,0.4747 0,0.0447 -0.0229,0.0665 -0.0698,0.0665 -0.1811,0 -0.456,-0.0089 -0.8224,-0.0268 -0.3676,-0.0179 -0.6436,-0.0268 -0.829,-0.0268 -0.1745,0 -0.2847,0.0219 -0.3305,0.0646 -0.0458,0.0427 -0.0687,0.148 -0.0687,0.3178l0 0.434c0,0.1192 0.0033,0.1877 0.0098,0.2076 0.0185,0.0606 0.0741,0.0904 0.1658,0.0904 0.025,0 0.0611,-0.001 0.108,-0.003 0.0491,0 0.0851,0 0.109,0 0.4167,0 0.7908,-0.007 1.1224,-0.0209 0.1298,-0.004 0.2836,-0.0139 0.4603,-0.0298 0.0447,-0.004 0.0665,0.0139 0.0665,0.0526 0,0.0626 -0.0076,0.1579 -0.024,0.287 -0.0164,0.1281 -0.024,0.2245 -0.024,0.289 0,0.0358 -0.0316,0.0527 -0.0959,0.0527 -0.0251,0 -0.12,-0.0069 -0.2836,-0.0199 -0.1189,-0.0119 -0.3872,-0.0179 -0.8039,-0.0179 -0.3512,0 -0.5737,0.004 -0.6664,0.0119 -0.0851,0.005 -0.1342,0.0457 -0.1473,0.1212 0.0022,-0.0139 0.0033,0.0606 0.0033,0.2225l0 0.429c0,0.2006 0.0338,0.3258 0.1025,0.3764 0.0524,0.0408 0.1855,0.0606 0.3982,0.0606l0.3512 -0.003c0.1495,0 0.5672,-0.0238 1.2555,-0.0715l0.048 -0.003c0.0426,-0.004 0.0633,0.0208 0.0633,0.0735zm4.9946 0.5155c0,0.0487 -0.0262,0.0725 -0.0796,0.0725 -0.0382,0 -0.096,-0.003 -0.1734,-0.0089 -0.0775,-0.006 -0.1353,-0.0089 -0.1735,-0.0089 -0.0381,0 -0.0971,0.003 -0.1756,0.0089 -0.0785,0.006 -0.1363,0.0089 -0.1745,0.0089 -0.0535,0 -0.0796,-0.0318 -0.0796,-0.0963 0,-0.2463 0.0077,-0.6158 0.0251,-1.1084 0.0175,-0.4926 0.0251,-0.8621 0.0251,-1.1094 0,-0.0367 -0.0076,-0.0546 -0.0251,-0.0546 -0.0196,0 -0.0338,0.0109 -0.0447,0.0318 -0.1091,0.2116 -0.3654,0.7777 -0.7701,1.6964 -0.0654,0.1768 -0.1603,0.3973 -0.2836,0.6615 -0.0153,0.0219 -0.0927,0.0328 -0.2312,0.0328 -0.2018,0 -0.313,-0.0169 -0.3349,-0.0496 -0.072,-0.1569 -0.1756,-0.3774 -0.3108,-0.6605 -0.1767,-0.3834 -0.4494,-0.9555 -0.817,-1.7152 -0.0065,-0.0139 -0.0196,-0.0268 -0.0414,-0.0408 -0.0175,0.0119 -0.0251,0.0328 -0.0251,0.0636 0,0.2503 0.0044,0.6257 0.0142,1.1263 0.0098,0.5006 0.0142,0.876 0.0142,1.1263 0,0.0635 -0.0262,0.0963 -0.0797,0.0963 -0.0371,0 -0.0916,-0.003 -0.1669,-0.0089 -0.0741,-0.006 -0.1298,-0.0089 -0.1658,-0.0089 -0.0381,0 -0.096,0.003 -0.1712,0.0089 -0.0753,0.006 -0.1331,0.0089 -0.1713,0.0089 -0.0535,0 -0.0796,-0.0189 -0.0796,-0.0556 0,-0.2155 0.0109,-0.5383 0.0327,-0.9674 0.0218,-0.4301 0.0327,-0.7528 0.0327,-0.9674 0,-0.2235 -0.0109,-0.5582 -0.0327,-1.0061 -0.0218,-0.447 -0.0327,-0.7816 -0.0327,-1.0051 0,-0.0367 0.024,-0.0576 0.073,-0.0635 0.2891,-0.0348 0.5072,-0.0527 0.6534,-0.0527 0.0218,0 0.0513,0.0397 0.0905,0.1192 0.517,1.0319 0.9609,1.9536 1.3329,2.7641 0.0873,0.1907 0.1396,0.285 0.157,0.285 0.0218,0 0.0677,-0.0774 0.1374,-0.2324 0.2913,-0.6277 0.6949,-1.5593 1.2097,-2.7959 0.0338,-0.0775 0.0698,-0.1162 0.1091,-0.1162 0.072,0 0.18,0.004 0.3239,0.0119 0.144,0.008 0.252,0.0109 0.324,0.0109 0.0524,0 0.0785,0.0238 0.0785,0.0705 0,0.2225 -0.0076,0.5582 -0.0229,1.0051 -0.0153,0.447 -0.023,0.7827 -0.023,1.0051 0,0.2135 0.0088,0.5333 0.0262,0.9604 0.0175,0.4271 0.0262,0.7459 0.0262,0.9574z"/>
  </g>
 </g>
</svg>
