<?xml version="1.0" encoding="UTF-8"?>
<!DOCTYPE svg PUBLIC "-//W3C//DTD SVG 1.1//EN" "http://www.w3.org/Graphics/SVG/1.1/DTD/svg11.dtd">
<!-- Creator: CorelDRAW 2018 (64 Bit) -->
<svg xmlns="http://www.w3.org/2000/svg" xml:space="preserve" width="71.4182mm" height="101.933mm" version="1.1" style="shape-rendering:geometricPrecision; text-rendering:geometricPrecision; image-rendering:optimizeQuality; fill-rule:evenodd; clip-rule:evenodd"
viewBox="0 0 55.5537 79.2897"
 xmlns:xlink="http://www.w3.org/1999/xlink">
 <defs>
  <style type="text/css">
   <![CDATA[
    .fil1 {fill:black}
    .fil3 {fill:#165689}
    .fil2 {fill:#F4FBFB}
    .fil0 {fill:#FC5200}
   ]]>
  </style>
 </defs>
 <g id="Camada_x0020_1">
  <metadata id="CorelCorpID_0Corel-Layer"/>
  <path class="fil0" d="M46.6774 72.6186c-0.7451,0.2934 -0.4183,1.2172 -0.4202,3.0737 -0.0012,1.1169 -0.0079,2.2342 -0.0079,3.3514l0.4797 0.0294c0,-1.292 -0.2233,-4.2106 0.1385,-5.2409l0.3654 0.6242 2.4985 4.1382c0.6114,-0.4451 1.5469,-2.1341 1.6963,-2.8832 0.655,-0.4534 0.9757,-1.5602 1.5349,-2.2305 0.231,1.5774 -0.3571,4.3587 0.2772,5.5981l0.6596 -0.0268c0.4365,-0.8945 0.2613,-5.1615 0.1303,-6.3965 -1.21,-0.0845 -1.0457,0.1349 -1.6228,1.1439 -0.3798,0.6641 -0.8432,1.2068 -0.9792,1.9118 -0.5444,0.3576 -0.6292,0.9266 -1.1233,1.5166l-2.775 -4.3049c-0.2565,-0.4985 -0.0668,-0.4277 -0.852,-0.3046z"/>
  <path class="fil0" d="M38.2413 78.8509c0.3764,0.6495 4.2563,0.4754 4.9246,0.1344 -0.524,-0.4104 -1.0209,-0.2698 -1.8383,-0.2625 -0.6746,0.006 -1.348,0.0124 -2.0182,-0.0456l-0.0074 -3.1013c0.822,-0.0902 1.6393,0.0698 2.1974,-0.2207 -0.254,-0.5213 -1.2627,-0.2399 -2.0315,-0.3381l-0.018 -1.8734 2.9248 -0.0348c1.2652,-0.0952 0.4929,0.0629 0.8099,-0.368l-4.9042 -0.1307 -0.0391 6.2405z"/>
  <path class="fil0" d="M13.4065 78.9205c0.2804,0.4883 1.183,0.3387 1.5671,-0.0082 3.2141,0.2051 3.5611,-5.6719 0.3795,-6.0567 -0.3801,-0.5967 -1.7409,-0.3738 -2.2501,-0.0046 -2.942,0.4084 -2.9892,5.9297 0.3035,6.0695zm1.2342 -0.1711l-0.5705 0.0135c-2.5594,-0.0769 -3.1073,-4.405 -0.642,-5.7147l1.6126 0.0072c2.1919,0.937 2.1744,5.2871 -0.4001,5.694z"/>
  <path class="fil0" d="M32.8553 78.6197l-2.4183 0.1452 0.0481 -3.2973 2.1683 -0.0163c1.8259,0.752 1.645,2.8881 0.2019,3.1683zm-2.3772 -3.5291l-0.0233 -2.0823c0.9136,-0.162 1.506,-0.1606 2.3804,0.18 0.5207,0.4712 0.6323,1.1721 0.0193,1.6428 -0.2714,0.2083 -0.6966,0.2784 -1.1381,0.2938zm-0.5422 -0.0029c-0.2557,-0.0092 -0.4973,-0.0254 -0.6961,-0.0314zm3.0922 -2.2923c-0.8912,-0.5775 -3.2176,-0.4081 -4.3334,-0.1545 -0.1397,1.0808 -0.1908,5.5023 0.0652,6.4297 0.8398,0.1078 3.6431,0.2926 4.1415,-0.1453 0.9663,0.0643 1.5395,-0.8694 1.5579,-1.7959 0.0238,-1.1981 -0.637,-1.4337 -1.3974,-2.0798 0.6788,-0.7297 1.2778,-1.745 -0.0338,-2.2543z"/>
  <path class="fil0" d="M4.8018 78.7622l-2.3576 -0.0516 0.0542 -5.8124 2.7655 0.1244c2.5,1.5266 2.1615,5.2426 -0.4622,5.7396zm0.841 -5.867c-0.283,-0.5429 -3.5366,-0.3759 -4.2746,-0.3052 -0.1424,1.1726 -0.2029,5.5337 0.0917,6.5385l2.8216 -0.0002 0.5552 -0.2366c3.2417,0.8031 4.6114,-5.523 0.806,-5.9965z"/>
  <path class="fil1" d="M24.2694 50.1962c9.1904,0.5661 10.0351,17.464 0.2433,17.4387l-0.2433 -17.4387zm-1.5795 19.2466c2.2914,1.0409 6.5169,-0.3465 8.1253,-2.2036 2.0064,-2.3166 2.7946,-5.0754 2.6059,-8.2209 -0.346,-5.7705 -4.5926,-11.9686 -11.0324,-10.676 -0.2625,1.0577 0.0052,19.769 0.3012,21.1005z"/>
  <path class="fil1" d="M1.99 50.1924c3.8689,0.3693 6.6139,2.667 6.6588,6.7691 0.0443,4.0457 -2.5902,6.5221 -6.4561,7.0741l-0.2027 -13.8432zm-1.4132 19.3344l1.5772 -0.0137 0.0962 -3.4638c2.3133,-0.466 4.6845,-1.0899 6.1315,-2.9282 1.6183,-2.0559 2.4482,-4.1753 2.1867,-6.9483 -0.5318,-5.64 -6.1545,-8.9942 -10.3787,-7.7791 -0.3642,0.8133 -0.1872,20.0724 0.3871,21.133z"/>
  <path class="fil1" d="M40.4752 51.907l1.2898 5.6585 -2.9677 -0.0545 1.6779 -5.604zm-5.2264 11.3661c0.5956,0.4909 0.8891,0.5147 1.6511,0.3887l1.3389 -4.164 4.0012 0.0445c0.7628,1.6575 0.446,5.8467 2.9008,3.925 0.0827,-0.8676 -3.4144,-14.6242 -3.8083,-15.1556 -2.043,-0.5888 -1.8978,1.0005 -2.4204,2.5372 -0.694,2.0405 -3.7675,11.5022 -3.6632,12.4242z"/>
  <path class="fil1" d="M14.1522 50.1557c1.2366,0.0395 2.4766,0.0063 3.7144,0.0195 1.2759,0.0137 2.5365,-0.0435 1.5736,-1.7657 -0.9549,-0.3518 -6.4064,-0.3769 -7.2122,0.0608 -0.3131,0.357 -0.0499,11.6657 -0.0014,13.8562 0.0179,0.8043 -0.0653,1.0026 0.4582,1.4578 0.8079,0.2306 6.3662,0.1941 7.1637,-0.1129 0.4918,-2.5633 -0.6542,-1.5732 -5.6606,-1.7927l-0.0278 -4.2669c1.1672,0.0058 2.3507,0.0148 3.5094,0.0052 2.0172,-0.0166 1.6446,-1.5725 0.9706,-1.8157 -0.3226,-0.5116 -3.6371,-0.2273 -4.4234,-0.211l-0.0646 -5.4346z"/>
  <path class="fil1" d="M48.0816 69.5438c1.2687,0.1672 6.4269,0.3355 7.3066,-0.2079 0.5481,-1.7872 -0.3284,-1.7117 -1.7104,-1.6999 -1.2958,0.0111 -2.5926,0.0002 -3.8889,0.0079 -0.0999,-2.5026 0.0038,-18.3552 -0.6472,-19.326l-1.4026 -0.0151c-0.4373,0.9109 -0.1135,20.2412 0.3423,21.241z"/>
  <path class="fil1" d="M35.8495 68.617c0.863,0.3755 7.7753,0.3489 8.7166,0.0177 0.1853,-1.347 0.2797,-1.7545 -1.1663,-1.7773l-6.1989 0.0025c-1.4687,-0.0058 -1.7085,0.2379 -1.3515,1.7572z"/>
  <path class="fil1" d="M12.3956 68.575c0.9541,0.3953 6.3742,0.372 7.4476,0.0289 0.1878,-0.7716 0.2336,-0.8732 -0.0726,-1.6076 -0.8324,-0.3668 -6.4017,-0.3303 -7.3778,-0.0578 -0.276,0.7151 -0.3621,0.9379 0.0028,1.6365z"/>
  <path class="fil2" d="M16.6335 21.0275c0.093,-1.087 0.2148,-1.224 -0.4109,-2.1086l-0.764 0.1073c0.5801,-1.3627 -0.0035,-0.9596 -0.2414,-1.9232 0.7464,0.2141 1.2034,-0.2288 1.3995,-0.9064 0.6217,0.5461 0.0692,0.3623 0.7849,0.3588l0.4303 -0.8095c0.6319,0.6175 0.9823,0.3158 1.6502,0.2782 -0.3342,0.6145 -0.3791,0.2513 -0.1781,0.8021 0.5394,0.2244 0.2784,0.2099 0.8392,-0.2316 0.2814,0.7502 -0.2311,-0.4828 0.0554,0.3501 0.2555,0.7429 0.3682,0.0727 0.7113,0.8853 -0.9576,-0.378 -0.9635,0.0289 -1.8025,-0.8019 -0.5235,-0.5184 -0.8944,-0.8895 -1.4532,-0.1956 0.4456,0.6815 0.2501,0.2279 1.0539,0.6461 -0.0824,0.0424 -0.9826,0.4372 -1.1576,0.5149l-0.083 -0.9321c-1.5623,-0.1094 -1.723,0.5686 -0.9642,1.7728 0.8794,0.5732 0.541,1.1106 0.593,2.1583l0.4189 -0.19c-0.0817,-3.5341 1.4665,-1.6687 3.697,-2.4706 1.5571,-0.966 -0.8436,-4.4894 -4.9353,-3.2709 -1.1643,0.3466 -2.0306,1.8082 -1.8873,2.9763 0.0916,0.7457 1.6684,2.6941 2.2439,2.9903z"/>
  <path class="fil0" d="M29.352 18.8951c0.8865,0.4066 1.1615,1.0293 1.2082,1.9759l-2.0287 0.0784 0.8206 -2.0543zm0.2257 -4.5876c-0.8565,0.2081 -0.4088,-0.2401 -0.5933,0.4652l0.7869 0.2673c0.3886,0.8762 -0.2816,1.9301 -0.778,2.6623 -6.3778,-0.9302 -5.3422,7.8529 -0.0353,6.519 1.728,-0.4343 1.7052,-1.5339 2.5063,-2.5566 3.4308,-0.0678 2.879,-2.4383 5.7298,-4.4148 0.6007,1.3827 -2.3698,1.2226 -1.764,4.4581 0.3374,1.8018 2.2022,2.954 3.9808,2.6533 1.8382,-0.3108 3.0384,-2.1749 2.7064,-3.9934 -0.4159,-2.2785 -2.1012,-2.5856 -4.0055,-2.7907 -0.5644,-2.0231 -0.7326,-3.6697 -2.0095,-3.9063 -0.9661,-0.1791 -1.1909,-0.2278 -1.3397,0.483l1.6323 0.3198 0.2915 1.1214c-1.1877,0.0415 -5.3302,0.3416 -5.9644,-0.2928 0.162,-0.8427 0.5521,-0.1335 1.2853,-0.8777l-2.4296 -0.1172zm-2.3634 4.1508l1.1808 0.0089 0.1091 0.3913c-0.3021,0.8895 -0.9223,1.7584 -0.9135,2.6898l2.7738 0.1079c-0.1212,1.9798 -2.914,2.4006 -4.232,1.107 -1.5228,-1.4947 -0.654,-3.5102 1.0818,-4.3049zm11.2762 0.0401c3.0227,-0.4293 3.948,4.1254 1.0779,4.9883 -2.8939,0.87 -4.9156,-3.0257 -1.9693,-4.7545 0.7727,1.1518 0.2274,1.9914 1.2586,2.4991 0.3769,-0.7037 -0.1247,-1.9195 -0.3672,-2.7329zm-8.3508 -1.4517l0.2919 -0.3405 0.265 0.518 1.3147 3.6602c-1.0803,-0.0047 -0.475,-0.4231 -1.0419,-1.5199 -0.3565,-0.6896 -0.74,-0.8522 -1.1719,-1.3601l0.3421 -0.9576zm1.041 -0.7007l5.5494 0.0798c-0.4652,0.6612 -3.4222,4.02 -4.0118,4.2491l-1.5377 -4.3289z"/>
  <path class="fil0" d="M31.2367 36.17c-2.5931,1.462 -3.5371,2.0298 -6.3495,0.3783 -3.5269,-2.0711 -7.2282,-4.033 -10.6925,-6.1656 -2.6659,-1.6411 -2.6433,-2.7561 -2.6409,-5.7311 0.0022,-2.8126 0.0013,-5.626 0.0002,-8.4382 -0.0011,-2.636 -0.5258,-4.907 1.5861,-6.7799l10.5023 -6.1736c2.2462,-1.1594 3.5451,-2.5438 6.2521,-1.1174 3.5303,1.8603 7.225,4.1575 10.7037,6.162 2.3284,1.3417 3.3375,2.1079 3.3307,5.0216 -0.0075,3.127 0.6862,13.817 -1.0171,15.7949 -0.9567,1.1109 -9.9982,6.1036 -11.6751,7.049zm13.3129 -26.7052l-0.5051 -0.6007c-1.2271,-1.2228 -6.0698,-3.8731 -7.8359,-4.8236 -8.838,-4.7567 -6.8787,-6.067 -17.3215,0.2265 -2.7885,1.6807 -5.3888,2.8622 -7.8338,4.9498l-0.4624 0.6701c-0.0902,1.4946 -0.5198,0.3806 -0.5205,5.2974 -0.0002,1.9895 0,3.979 0,5.9685 0,9.208 -0.7544,8.5395 9.6702,14.1798 2.2682,1.2272 5.8647,3.9384 8.4222,3.7503 1.9495,-0.1434 6.0956,-2.9893 7.9705,-3.9908 11.2594,-6.0144 9.277,-4.7142 9.2924,-20.5251 0.004,-4.0553 -0.1606,-2.7218 -0.876,-5.1021z"/>
  <path class="fil3" d="M16.5033 18.8342c-0.7589,-1.2041 -0.5981,-1.8821 0.9642,-1.7728l0.083 0.9321c0.175,-0.0778 1.0752,-0.4726 1.1576,-0.5149 -0.8038,-0.4182 -0.6082,0.0354 -1.0539,-0.6461 0.5588,-0.6939 0.9297,-0.3228 1.4532,0.1956 0.8389,0.8308 0.8449,0.4239 1.8025,0.8019 -0.3431,-0.8126 -0.4558,-0.1423 -0.7113,-0.8853 -0.2865,-0.8329 0.226,0.4001 -0.0554,-0.3501 -0.5608,0.4415 -0.2997,0.456 -0.8392,0.2316 -0.201,-0.5508 -0.1562,-0.1875 0.1781,-0.8021 -0.668,0.0376 -1.0184,0.3394 -1.6502,-0.2782l-0.4303 0.8095c-0.7157,0.0035 -0.1633,0.1873 -0.7849,-0.3588 -0.1961,0.6776 -0.6531,1.1205 -1.3995,0.9064 0.2379,0.9636 0.8215,0.5605 0.2414,1.9232l0.764 -0.1073c0.6257,0.8846 0.5039,1.0216 0.4109,2.1086 -0.5755,-0.2962 -2.1524,-2.2446 -2.2439,-2.9903 -0.1433,-1.168 0.723,-2.6296 1.8873,-2.9763 4.0917,-1.2185 6.4924,2.305 4.9353,3.2709 -2.2305,0.8019 -3.7787,-1.0635 -3.697,2.4706l-0.4189 0.19c-0.052,-1.0477 0.2864,-1.5851 -0.593,-2.1583zm-1.8512 4.8374c-0.2695,0.2507 -0.2263,-0.2069 -0.2206,0.5094l1.3891 0.0942 3.2642 0.136 0.4575 -1.3627c1.1976,-0.2084 1.9864,0.3182 2.9049,-0.2249 0.1401,-0.3999 0.1648,-1.1601 0.3482,-1.8618 0.3129,-1.1971 -0.4043,-0.3793 0.7233,-1.4269 -0.5575,-1.2815 -0.9946,-0.6975 -1.1085,-2.4976 -0.2166,-3.4251 -4.5294,-3.9186 -6.7298,-2.8194 -4.6599,2.3281 -0.9016,6.4543 -0.807,6.6503 0.5779,1.1967 -0.0772,1.6593 -0.2215,2.8033z"/>
 </g>
</svg>
