<?xml version="1.0" encoding="UTF-8"?>
<!DOCTYPE svg PUBLIC "-//W3C//DTD SVG 1.1//EN" "http://www.w3.org/Graphics/SVG/1.1/DTD/svg11.dtd">
<!-- Creator: CorelDRAW 2018 (64 Bit) -->
<svg xmlns="http://www.w3.org/2000/svg" xml:space="preserve" width="53.9079mm" height="104.777mm" version="1.1" style="shape-rendering:geometricPrecision; text-rendering:geometricPrecision; image-rendering:optimizeQuality; fill-rule:evenodd; clip-rule:evenodd"
viewBox="0 0 94.9085 184.4674"
 xmlns:xlink="http://www.w3.org/1999/xlink">
 <defs>
  <style type="text/css">
   <![CDATA[
    .fil1 {fill:#165689}
    .fil2 {fill:black;fill-rule:nonzero}
    .fil0 {fill:#FC5200;fill-rule:nonzero}
   ]]>
  </style>
 </defs>
 <g id="Camada_x0020_1">
  <metadata id="CorelCorpID_0Corel-Layer"/>
  <g id="_2126396192496">
   <path class="fil0" d="M50.9739 0.971l16.5416 9.5502 0.0069 0 16.5469 9.5534c1.11,0.6408 1.9872,1.5188 2.59,2.563l0 0.0069c0.607,1.0518 0.9312,2.2502 0.9312,3.5241l0 38.2131c0,1.2739 -0.3241,2.4724 -0.9312,3.5241l0 0.0069c-0.6028,1.0442 -1.4799,1.9222 -2.59,2.563l-16.5469 9.5534 -0.0069 0 -16.5416 9.5502 0.0018 0.003c-1.1174,0.6452 -2.3185,0.968 -3.5211,0.968 -1.2026,0 -2.4037,-0.3227 -3.5211,-0.968l0.0018 -0.003 -16.5416 -9.5502 -0.0069 0 -16.5469 -9.5534c-1.11,-0.6408 -1.9872,-1.5188 -2.59,-2.563l0 -0.0069c-0.607,-1.0518 -0.9312,-2.2502 -0.9312,-3.5241l0 -38.2131c0,-1.2739 0.3241,-2.4724 0.9312,-3.5241l0 -0.0069c0.6028,-1.0442 1.4801,-1.9222 2.59,-2.563l16.5469 -9.5534 0.0069 0 16.5416 -9.5502 -0.0018 -0.003c1.1174,-0.6452 2.3185,-0.968 3.5211,-0.968 1.2026,0 2.4037,0.3227 3.5211,0.968l-0.0018 0.003zm14.7897 12.587l-16.5416 -9.5502 -0.0069 0c-0.5618,-0.3243 -1.1623,-0.4866 -1.7606,-0.4866 -0.5982,0 -1.1988,0.1623 -1.7606,0.4866l-0.0069 0 -16.5416 9.5502 0.0018 0.003 -16.5469 9.5534c-0.5694,0.3287 -1.0132,0.7685 -1.3107,1.2838l-0.003 -0.0018c-0.2912,0.5069 -0.4468,1.1092 -0.4468,1.7722l0 38.2131c0,0.663 0.1556,1.2653 0.4468,1.7722l0.003 -0.0018c0.2975,0.5153 0.7414,0.9551 1.3107,1.2838l16.5469 9.5534 -0.0018 0.003 16.5416 9.5502 0.0069 0c0.5618,0.3243 1.1623,0.4866 1.7606,0.4866 0.5982,0 1.1988,-0.1623 1.7606,-0.4866l0.0069 0 16.5416 -9.5502 -0.0018 -0.003 16.5469 -9.5534c0.5694,-0.3287 1.0132,-0.7685 1.3107,-1.2838l0.003 0.0018c0.2912,-0.5069 0.4468,-1.1092 0.4468,-1.7722l0 -38.2131c0,-0.663 -0.1556,-1.2653 -0.4468,-1.7722l-0.003 0.0018c-0.2975,-0.5153 -0.7414,-0.9551 -1.3107,-1.2838l-16.5469 -9.5534 0.0018 -0.003z"/>
   <path class="fil0" d="M72.5562 56.029c-3.3981,0 -6.1629,-2.8776 -6.1629,-6.4152 0,-2.4785 1.3578,-4.6333 3.3396,-5.7009l2.082 5.9599c0.1129,0.3236 0.4164,0.5266 0.7412,0.5266 0.0856,0 0.1731,-0.0144 0.259,-0.0442 0.4093,-0.143 0.625,-0.5907 0.4819,-1l-2.0958 -5.9997c0.4361,-0.1023 0.8896,-0.1565 1.3549,-0.1565 3.3977,0 6.1623,2.8778 6.1623,6.4148 0,3.5375 -2.7646,6.4152 -6.1623,6.4152zm-12.8261 -7.9815l-3.3833 -8.9532 10.5393 0 -7.156 8.9532zm-3.8548 0.7815c-0.221,-2.3285 -1.4148,-4.3666 -3.1549,-5.6745l2.2789 -3.1849 3.3477 8.8594 -2.4717 0zm-1.5789 0l-5.6361 0 3.1467 -4.3979c1.3438,1.0218 2.2773,2.5953 2.4894,4.3979zm-6.1166 7.2c-3.3981,0 -6.1627,-2.8776 -6.1627,-6.4152 0,-3.537 2.7646,-6.4148 6.1627,-6.4148 0.797,0 1.559,0.1583 2.2588,0.4461l-3.9438 5.512c-0.1713,0.2393 -0.1944,0.5541 -0.0599,0.8157 0.1345,0.2618 0.4041,0.4262 0.6982,0.4262l7.1632 0c-0.3731,3.1685 -2.9736,5.6299 -6.1166,5.6299zm24.3763 -14.4002c-0.6465,0 -1.2745,0.0829 -1.8752,0.2379l-2.0849 -5.9689 3.4694 0c0.5206,0 0.9442,0.4236 0.9442,0.944l0 0.6468c0,0.5204 -0.4236,0.9438 -0.9442,0.9438 -0.4338,0 -0.785,0.3516 -0.785,0.785 0,0.4336 0.3512,0.785 0.785,0.785 1.3864,0 2.5141,-1.1276 2.5141,-2.5139l0 -0.6468c0,-1.3861 -1.1276,-2.5139 -2.5141,-2.5139l-4.5065 0c-0.4338,0 -0.7852,0.3514 -0.7852,0.7849 0,0.0335 0.0028,0.0664 0.0069,0.0986 -0.0148,0.1167 -0.0042,0.2384 0.037,0.3572l0.6833 1.9555 -11.7474 0 -0.9643 -2.5516 1.7937 -0.135c0.4114,-0.0312 0.7287,-0.3754 0.7261,-0.788 -0.0028,-0.4129 -0.3246,-0.7528 -0.7364,-0.7782l-5.1289 -0.3185c-0.2164,-0.0134 -0.4283,0.063 -0.5863,0.2114 -0.1579,0.1484 -0.2474,0.3553 -0.2474,0.572l0 0.7048c0,0.2185 0.091,0.4271 0.2511,0.5755 0.1458,0.1354 0.3366,0.2095 0.5338,0.2095 0.0197,0 0.0394,-0.0007 0.059,-0.0023l1.7033 -0.1282 1.1747 3.1085 -2.9602 4.1373c-0.9734,-0.4574 -2.0542,-0.7125 -3.1917,-0.7125 -4.2637,0 -7.7328,3.5822 -7.7328,7.9851 0,4.4032 3.469,7.9852 7.7328,7.9852 4.0074,0 7.3123,-3.1641 7.6954,-7.2l3.603 0c0.0016,0 0.0032,0 0.0048,0 0.0125,0 0.025,-0.0002 0.0375,-0.0009 0.1787,-0.0085 0.3417,-0.0766 0.4697,-0.185 0.0245,-0.0208 0.0477,-0.043 0.0697,-0.0667 0.0002,-0.0004 0.0002,-0.0005 0.0004,-0.0005 0.0002,0 0.0002,-0.0002 0.0002,-0.0002 0.0141,-0.0153 0.0275,-0.0312 0.0403,-0.0474l8.206 -10.2669 0.9028 2.5845c-2.593,1.2905 -4.3865,4.0321 -4.3865,7.1979 0,4.4032 3.4688,7.9852 7.7329,7.9852 4.2639,0 7.7326,-3.5821 7.7326,-7.9852 0,-4.4028 -3.4687,-7.9851 -7.7326,-7.9851z"/>
   <path class="fil1" d="M21.868 44.772c-1.7454,-2.7694 -1.3757,-4.3287 2.2176,-4.0771l0.1908 2.1438c0.4025,-0.179 2.4731,-1.087 2.6625,-1.1845 -1.8488,-0.9618 -1.3989,0.0815 -2.424,-1.4859 1.2854,-1.596 2.1384,-0.7424 3.3424,0.4498 1.9294,1.9107 1.9433,0.9748 4.1456,1.8444 -0.7891,-1.869 -1.0482,-0.3275 -1.6359,-2.0363 -0.659,-1.9157 0.5197,0.9202 -0.1275,-0.8053 -1.2896,1.0155 -0.6893,1.0488 -1.9299,0.5327 -0.4623,-1.2669 -0.3593,-0.4313 0.4095,-1.8447 -1.5363,0.0866 -2.3423,0.7805 -3.7956,-0.6398l-0.9896 1.8618c-1.6461,0.0081 -0.3755,0.4308 -1.8055,-0.825 -0.4509,1.5585 -1.5019,2.5771 -3.2188,2.0847 0.5474,2.2164 1.8894,1.2891 0.5553,4.4233l1.7572 -0.2468c1.4393,2.0345 1.159,2.3497 0.9451,4.8497 -1.3238,-0.6813 -4.9504,-5.1625 -5.1609,-6.8777 -0.3296,-2.6865 1.6629,-6.0483 4.3409,-6.8454 9.4108,-2.8025 14.9323,5.3014 11.3511,7.5231 -5.1301,1.8444 -8.691,-2.446 -8.5032,5.6822l-0.9634 0.4371c-0.1195,-2.4097 0.6588,-3.6456 -1.3637,-4.9641zm-5.0963 12.8271l11.0337 0 1.0523 -3.1342c2.7546,-0.4792 4.5689,0.732 6.6814,-0.5171 0.3222,-0.9199 -0.3387,-2.3567 0.7697,-4.1599 0.3648,-2.9426 -1.7509,-1.0893 1.6949,-3.4042 -1.2822,-2.9472 -2.2875,-1.6042 -2.5495,-5.7444 -0.4982,-7.8777 -10.4175,-9.0129 -15.4782,-6.4845 -10.7176,5.3544 -2.0738,14.8448 -1.8562,15.2955 1.0884,2.2541 -0.418,5.9062 -1.3481,8.1488z"/>
  </g>
  <g id="_2126396195984">
   <path class="fil2" d="M11.531 108.8045c-3.4002,-2.2174 -7.3917,-2.4393 -11.2354,-1.5521 -0.2217,0.1477 -0.2956,0.2956 -0.2956,0.5173 0,5.396 0,10.7919 0,16.1879 0,8.5743 0,17.2224 0,25.7967 0,1.9958 0,3.9176 0,5.9134 0,1.5523 4.5828,3.8437 4.5828,2.4393 0,-2.7349 0,-5.4699 0,-8.1308 0.1479,-0.0739 0.2956,-0.1479 0.3695,-0.2218 5.1741,-4.8784 8.5006,-11.2352 10.1266,-18.1833 1.0349,-4.509 1.3305,-9.1657 1.2565,-13.8224 -0.1477,-3.8437 -1.4782,-6.8004 -4.8044,-8.944zm0.2217 9.2396c-0.2217,7.096 -1.3305,13.9703 -4.8046,20.2531 -0.6651,1.3306 -1.4783,2.5872 -2.3653,3.7699 0,0 0,-0.0739 0,-0.1479 0,-8.5743 0,-17.2226 0,-25.7969 0,-1.8479 0,-3.6958 0,-5.5437 1.7739,-0.4435 4.509,-0.8132 6.0611,0.1477 0.3697,0.2218 0.7393,1.4783 0.8872,2.2176 0.2956,1.7 0.2217,3.4002 0.2217,5.1002zm12.4919 29.9362c2.2914,0 4.5829,0 6.8004,0 0.7391,0 -0.5914,-1.6261 -0.7393,-1.7739 -0.4435,-0.5174 -1.6261,-1.9958 -2.4391,-1.9958 -1.1827,0 -2.2916,0 -3.4002,0 0,-0.5914 0,-1.1826 0,-1.7739 1.3305,0 2.7349,0 4.0653,0 0.2958,0 0.5174,0 0.813,0 0.6653,0 1.2567,-0.0739 1.8481,-0.4435 0.4435,-0.3697 0.813,-1.0349 0.813,-1.6262 0,-0.5914 -0.2218,-1.1826 -0.6653,-1.6261 -0.4435,-0.4437 -1.1086,-0.8872 -1.7739,-0.8872 -1.7,0 -3.4002,0 -5.1002,0 0,-8.2785 0,-16.5573 0,-24.836 0,-0.1477 0,-0.2956 0,-0.3695 0.0738,0 0.0738,0 0.2217,0 0.3695,0.0739 0.887,0 1.2567,0 1.7,0 3.4,0 5.1002,0 0.7391,0 -0.5914,-1.6261 -0.7393,-1.7739 -0.4435,-0.5174 -1.6261,-1.9958 -2.4391,-1.9958 -2.2916,0 -4.5829,0 -6.8743,0 -0.1479,0 -0.2218,0 -0.1479,0.2218 0,9.7569 0,19.514 0,29.3448 0,0.887 0,5.0264 0,5.9873 0,0.6651 0.9609,1.6261 1.4044,2.0695 0.4435,0.4435 1.3306,1.4783 1.9958,1.4783zm8.0569 6.9483c-3.3262,0 -6.7264,0 -10.0527,0 -0.5174,0 -0.9609,0 -1.4044,0 -0.7391,0 -1.4044,0 -1.9958,0.3695 -0.4435,0.2217 -0.9609,0.6651 -1.1086,1.1826 -0.2218,1.1827 0.9609,2.0697 2.0695,2.0697 3.3262,0 6.6525,0 10.0527,0 0.4435,0 0.9609,0 1.4044,0 0.6653,0 1.3306,-0.0739 1.9958,-0.3695 0.4435,-0.2218 0.9609,-0.7393 1.0349,-1.1827 0.2218,-1.1826 -0.887,-2.0695 -1.9958,-2.0695zm22.6925 -11.4571c1.4783,-10.2006 1.8479,-21.8055 -3.9916,-30.8233 -1.4044,-2.1435 -3.1784,-4.0653 -5.6176,-5.0262 -2.6611,-1.1088 -5.6176,-0.9609 -8.4264,-0.3695 0,0 0,0.0738 -0.0739,0.0738 0,0 0,0 0,0.0739 0,5.2481 0,10.4962 0,15.7442 0,8.3527 0,16.7052 0,25.0578 0,1.9218 0,3.8437 0,5.7655 0,0.9609 0.5174,1.9218 0.887,2.7349 0.2956,0.5174 0.813,1.7739 1.4783,1.8479 3.2523,0.2218 6.9481,-0.6653 9.7569,-2.3653 4.509,-2.8828 5.322,-7.909 5.9873,-12.7136zm-7.6873 7.6134c-2.2914,1.6261 -5.1741,2.513 -7.9829,2.7349 0,-3.7697 0,-7.4655 0,-11.1615 0,-8.3525 0,-16.7789 0,-25.1316 0,-1.8479 0,-3.6958 0,-5.6176 4.1393,-0.813 8.796,-0.4435 11.6048,2.9567 0.4435,0.4435 0.4435,0.4435 0.6653,0.887 0.0739,0.0739 0.0739,0.0739 0.0739,0.0739 0,0 0,0 0,0.0738 0,-0.0738 0.1477,0.3697 0.1477,0.2218 -0.1477,-0.2218 0,0.1479 0.0739,0.3695 0.0739,0 0.1479,0.3695 0.2218,0.4435 0.0739,0.2958 0.2217,0.8132 0.3695,1.3305 0.5174,2.2176 0.813,4.509 0.887,6.8004 0.2958,4.6567 -0.0739,9.3136 -0.7391,13.9703 -0.6653,4.5088 -1.3305,9.2396 -5.322,12.0484zm27.7187 -41.9846c-2.9567,-1.1827 -6.209,1.7 -7.7613,3.9914 -1.6262,2.5132 -2.7349,5.396 -3.6958,8.2787 -1.1088,3.4002 -2.0697,6.8743 -2.8828,10.3483 -0.5174,2.4393 -1.4783,6.8004 -1.9218,9.2396 -0.3695,1.9218 -0.7393,3.9176 -1.0349,5.9132 -0.1479,1.1088 1.8479,0.7393 2.3653,0.5914 1.0349,-0.3695 2.2174,-1.1826 2.4393,-2.2914 0.0739,-0.9609 0.2956,-1.8479 0.4435,-2.7349 2.8088,0 5.6176,0 8.3527,0 0,1.4783 0,2.9567 0,4.4349 0,1.8481 4.8044,0.0739 4.8044,-1.7 0,-1.5523 0,-3.0306 0,-4.5088 0,-8.5006 0.0739,-18.5532 0,-27.0536 0,-1.3305 0.4437,-3.8437 -1.1086,-4.5088zm-3.6958 3.1784c0,0 0,0 0,0 0,-0.0739 0.0738,-0.0739 0,0zm-6.7264 21.5837c1.3305,-6.2829 2.8088,-12.7138 5.5437,-18.553 0.4435,-0.887 0.7391,-1.4783 1.2565,-2.2176 0,0.7393 0,1.4783 0,2.2176 0,5.9132 0,11.8266 0,17.7398 0,1.5523 0,3.1046 0,4.7308 -2.513,0 -5.1002,0 -7.6134,0 0.2958,-1.3306 0.5174,-2.5872 0.8132,-3.9176zm8.2046 21.0663c-3.4,0 -6.7263,0 -10.0525,0 -0.5174,0 -0.9609,0 -1.4783,0 -0.6653,0 -1.3306,0 -1.9218,0.3695 -0.4435,0.2217 -0.9609,0.6651 -1.1088,1.1826 -0.2218,1.1827 0.9609,2.0697 2.0697,2.0697 3.3262,0 6.6525,0 10.0527,0 0.4435,0 0.887,0 1.4044,0 0.6651,0 1.3305,-0.0739 1.9218,-0.3695 0.4435,-0.2218 1.0347,-0.7393 1.1086,-1.1827 0.2218,-1.1826 -0.9609,-2.0695 -1.9958,-2.0695zm20.1793 2.6609c0.3697,-0.2218 1.1827,-0.5174 1.4044,-0.887 0.0739,-0.0739 0.5174,-0.4435 0.0739,-0.4435 -1.9958,0 -4.0653,0 -6.1351,0 -0.4435,0 -2.0697,0.2956 -2.5132,0 0.2218,0.1477 0.0739,-0.0739 0.1479,-0.3695 0.1479,-1.0349 0,-2.2176 0,-3.2525 0,-1.9956 0,-3.9174 0,-5.8393 0,-10.5701 0,-21.0663 0,-31.6364 0,-2.6609 0,-5.396 0,-8.1308 0,-0.4435 -2.5132,0.5174 -2.7349,0.5914 -0.4435,0.2217 -2.2914,0.813 -2.2914,1.5523 0,5.5437 0,11.0874 0,16.6312 0,8.8699 0,17.7398 0,26.6099 0,1.9958 0,4.0653 0,6.0611 0.0738,0 0.0738,0.0739 0.1477,0.0739 2.8828,0 5.7655,0 8.7222,0 1.1088,0 2.2174,-0.5174 3.1784,-0.9609z"/>
   <path class="fil0" d="M16.2925 175.5223c0,2.2662 -0.707,4.2229 -2.1261,5.8782 -1.5368,1.7956 -3.5134,2.6954 -5.9206,2.6954 -0.4621,0 -1.1512,-0.0165 -2.0761,-0.0495 -0.9248,-0.0331 -1.6183,-0.0454 -2.0808,-0.0454 -0.4171,0 -1.0426,0.0123 -1.8766,0.0454 -0.8387,0.0329 -1.4644,0.0495 -1.8815,0.0495 -0.222,0 -0.3308,-0.0991 -0.3308,-0.3014 0,-0.8792 0.0361,-2.2042 0.1088,-3.9792 0.0725,-1.775 0.1086,-3.1041 0.1086,-3.9916 0,-0.9329 -0.0361,-2.3405 -0.1086,-4.2187 -0.0727,-1.8782 -0.1088,-3.2857 -0.1088,-4.2229 0,-0.1692 0.1132,-0.2518 0.3445,-0.2518 0.3308,0 0.8206,0.0042 1.4687,0.0125 0.653,0.0081 1.1424,0.0123 1.4688,0.0123 0.3037,0 0.7616,-0.0042 1.3826,-0.0123 0.6211,-0.0083 1.088,-0.0125 1.41,-0.0125 3.0734,0 5.3629,0.5283 6.8678,1.5852 1.0833,0.7553 1.9174,1.7748 2.5115,3.0586 0.5576,1.193 0.8386,2.4437 0.8386,3.7481zm-3.2639 0c0,-1.7419 -0.5438,-3.1618 -1.6319,-4.2599 -1.1335,-1.1352 -2.6431,-1.7048 -4.5379,-1.7048 -1.5641,0 -2.1942,-0.0083 -1.8951,-0.0248 -1.0335,0.0495 -1.5549,0.2229 -1.5549,0.5201 0,0.6192 -0.0134,1.5521 -0.0452,2.7905 -0.0317,1.2384 -0.0454,2.1671 -0.0454,2.7863 0,0.615 0.0137,1.5356 0.0454,2.7615 0.0319,1.2261 0.0452,2.1424 0.0452,2.7574 0,0.3055 0.535,0.4831 1.5958,0.5326 -0.1451,-0.0083 0.5033,-0.0123 1.9357,-0.0123 1.0155,0 1.8269,-0.0951 2.4254,-0.2891 0.7435,-0.2435 1.4144,-0.6893 2.0037,-1.3456 1.1062,-1.2261 1.6592,-2.7285 1.6592,-4.5118zm22.961 0.0826c0,2.3942 -0.8431,4.4541 -2.5248,6.1794 -1.75,1.7873 -3.9305,2.6831 -6.5326,2.6831 -2.6111,0 -4.7917,-0.8916 -6.5324,-2.6708 -1.6819,-1.7171 -2.525,-3.781 -2.525,-6.1917 0,-2.3817 0.8521,-4.4416 2.5523,-6.1752 1.7498,-1.7956 3.9211,-2.6956 6.5051,-2.6956 2.5931,0 4.769,0.9 6.5189,2.6956 1.691,1.7254 2.5386,3.7852 2.5386,6.1752zm-3.2095 -0.0329c0,-1.581 -0.5394,-2.9556 -1.6183,-4.1278 -1.1335,-1.2426 -2.5523,-1.8618 -4.2613,-1.8618 -1.691,0 -3.1009,0.6275 -4.225,1.8864 -1.0609,1.1764 -1.5912,2.5593 -1.5912,4.1361 0,1.5727 0.5303,2.9514 1.5912,4.1278 1.1241,1.259 2.534,1.8864 4.225,1.8864 1.7136,0 3.1416,-0.6275 4.2748,-1.8864 1.0699,-1.1764 1.6048,-2.5674 1.6048,-4.1608zm26.524 3.2981c0,1.4035 -0.4623,2.6088 -1.3917,3.616 -0.9835,1.0567 -2.2303,1.585 -3.7444,1.585 -0.5667,0 -1.419,-0.0123 -2.5569,-0.0371 -1.1331,-0.0246 -1.9854,-0.0329 -2.5521,-0.0329 -0.4171,0 -1.0428,0.0123 -1.8768,0.0454 -0.8386,0.0329 -1.4643,0.0495 -1.8813,0.0495 -0.2222,0 -0.3308,-0.0908 -0.3308,-0.2766 0,-0.8875 0.0452,-2.2208 0.1359,-3.9998 0.0907,-1.775 0.1359,-3.1083 0.1359,-3.9958 0,-0.9329 -0.0452,-2.3405 -0.1359,-4.2146 -0.0907,-1.8739 -0.1359,-3.2775 -0.1359,-4.2144 0,-0.1775 0.1086,-0.2643 0.3308,-0.2643 0.7889,0 1.9766,0.0042 3.5586,0.0125 1.5866,0.0081 2.7743,0.0123 3.5722,0.0123 1.8586,0 3.341,0.3137 4.4472,0.9412 1.3463,0.7678 2.0173,1.9565 2.0173,3.5664 0,0.5572 -0.1768,1.1352 -0.5305,1.7338 -0.3535,0.6026 -0.7842,1.0567 -1.2919,1.3622 -0.2539,0.1526 -0.3854,0.2518 -0.3854,0.3012 0,0.0496 0.1315,0.1363 0.3854,0.2643 0.6754,0.3384 1.2148,0.8379 1.6183,1.4942 0.4079,0.6606 0.612,1.3416 0.612,2.0516zm-3.7262 -6.943c0,-1.1312 -0.5576,-1.8989 -1.6727,-2.291 -0.671,-0.2352 -1.7727,-0.3509 -3.3048,-0.3509 -1.487,0 -2.2305,0.0991 -2.2305,0.3014 0,0.2641 -0.0136,0.6646 -0.0408,1.197 -0.0273,0.5283 -0.0408,0.9329 -0.0408,1.2053 0,0.1857 0.0048,0.4706 0.0136,0.8586 0.0092,0.384 0.0137,0.6729 0.0137,0.8669 0,0.2352 1.0018,0.3509 3.0011,0.3509 2.8424,0 4.2613,-0.7141 4.2613,-2.1382zm0.3535 6.8275c0,-0.9866 -0.4805,-1.6512 -1.4461,-1.9979 -0.612,-0.2271 -1.5593,-0.3386 -2.8514,-0.3386 -2.2303,0 -3.3456,0.1074 -3.3456,0.3261l0 1.9856c0,0.2889 0.0092,0.7347 0.0273,1.3292 0.0183,0.5984 0.0271,1.0444 0.0271,1.3416 0,0.0826 0.2812,0.1444 0.8479,0.1815 0.5667,0.0414 1.4053,0.062 2.5204,0.062 1.3961,0 2.4025,-0.1651 3.0146,-0.4954 0.8025,-0.4375 1.2058,-1.2342 1.2058,-2.394zm18.2192 2.8977c0,0.128 -0.0363,0.3137 -0.1042,0.5572 -0.0817,0.3097 -0.1315,0.4954 -0.1496,0.5614 -0.0227,0.2889 -0.0861,0.7181 -0.1859,1.2755 -0.0408,0.1444 -0.1586,0.2187 -0.3445,0.2187 -0.0861,0 -0.2539,-0.0164 -0.503,-0.0495 -1.088,-0.1445 -2.7745,-0.2188 -5.0548,-0.2188 -0.6482,0 -1.6183,0.0165 -2.9194,0.0496 -1.3011,0.0329 -2.2757,0.0495 -2.9196,0.0495 -0.2947,0 -0.4396,-0.1155 -0.4396,-0.3509 0,-0.9041 0.0544,-2.2579 0.1632,-4.0701 0.1088,-1.8079 0.1632,-3.166 0.1632,-4.0701 0,-0.9164 -0.0544,-2.6294 -0.1632,-5.1391 -0.0183,-0.644 -0.068,-1.6058 -0.1495,-2.8896l-0.0137 -0.1692c-0.0092,-0.1857 0.1042,-0.2766 0.3445,-0.2766 0.621,0 1.5504,0.0165 2.7924,0.0496 1.2377,0.0289 2.1715,0.0454 2.7879,0.0454 0.594,0 1.4824,-0.0165 2.6657,-0.0454 1.1831,-0.0331 2.0718,-0.0496 2.6655,-0.0496 0.4171,0 0.6437,0.1157 0.6754,0.3509 0.1861,1.0567 0.2812,1.7173 0.2812,1.9731 0,0.1859 -0.0951,0.2766 -0.29,0.2766 -0.7525,0 -1.8951,-0.0371 -3.4181,-0.1114 -1.5276,-0.0743 -2.6747,-0.1114 -3.4453,-0.1114 -0.7254,0 -1.1831,0.0908 -1.3736,0.2683 -0.1905,0.1775 -0.2856,0.6151 -0.2856,1.321l0 1.8039c0,0.4954 0.0136,0.7801 0.0408,0.8627 0.0769,0.2518 0.3081,0.3757 0.6891,0.3757 0.104,0 0.2539,-0.0042 0.4488,-0.0123 0.2039,0 0.3535,0 0.4532,0 1.7317,0 3.2866,-0.029 4.6648,-0.0868 0.5394,-0.0165 1.1787,-0.0577 1.913,-0.1238 0.1857,-0.0165 0.2764,0.0577 0.2764,0.2187 0,0.2602 -0.0317,0.6563 -0.0996,1.193 -0.068,0.5326 -0.0998,0.9329 -0.0998,1.2012 0,0.1486 -0.1315,0.2188 -0.3988,0.2188 -0.1042,0 -0.4988,-0.0289 -1.1787,-0.0826 -0.4942,-0.0495 -1.6093,-0.0743 -3.341,-0.0743 -1.4597,0 -2.3843,0.0165 -2.7697,0.0495 -0.3537,0.0206 -0.5576,0.19 -0.6121,0.5037 0.009,-0.0579 0.0137,0.2518 0.0137,0.9247l0 1.7831c0,0.8338 0.1405,1.3541 0.4261,1.5644 0.2176,0.1694 0.7708,0.2519 1.6548,0.2519l1.4595 -0.0125c0.6211,0 2.3574,-0.0989 5.218,-0.2972l0.1993 -0.0123c0.1769,-0.0165 0.263,0.0866 0.263,0.3055zm20.758 2.1423c0,0.2023 -0.109,0.3014 -0.331,0.3014 -0.1588,0 -0.3989,-0.0123 -0.7208,-0.0371 -0.322,-0.0248 -0.5621,-0.0371 -0.721,-0.0371 -0.1585,0 -0.4035,0.0123 -0.7298,0.0371 -0.3264,0.0248 -0.5666,0.0371 -0.7254,0.0371 -0.2222,0 -0.331,-0.132 -0.331,-0.4004 0,-1.0238 0.0319,-2.5593 0.1044,-4.6067 0.0725,-2.0474 0.1042,-3.5829 0.1042,-4.6109 0,-0.1526 -0.0317,-0.2269 -0.1042,-0.2269 -0.0815,0 -0.1405,0.0454 -0.1859,0.132 -0.4533,0.8792 -1.5187,3.2322 -3.2005,7.0504 -0.2718,0.7349 -0.6664,1.6512 -1.1787,2.7491 -0.0634,0.0908 -0.3854,0.1363 -0.9609,0.1363 -0.8387,0 -1.3011,-0.0701 -1.3917,-0.2063 -0.2993,-0.6523 -0.7299,-1.5687 -1.2919,-2.7451 -0.7345,-1.5933 -1.8678,-3.971 -3.3956,-7.1287 -0.0271,-0.0579 -0.0815,-0.1114 -0.172,-0.1694 -0.0727,0.0496 -0.1044,0.1363 -0.1044,0.2643 0,1.0401 0.0181,2.6005 0.059,4.681 0.0407,2.0805 0.059,3.6407 0.059,4.681 0,0.2641 -0.109,0.4004 -0.3312,0.4004 -0.154,0 -0.3806,-0.0123 -0.6935,-0.0371 -0.3081,-0.0248 -0.5394,-0.0371 -0.6891,-0.0371 -0.1585,0 -0.3989,0.0123 -0.7116,0.0371 -0.3129,0.0248 -0.553,0.0371 -0.7118,0.0371 -0.2222,0 -0.3308,-0.0783 -0.3308,-0.2312 0,-0.8958 0.0452,-2.2373 0.1359,-4.0206 0.0907,-1.7873 0.1359,-3.1289 0.1359,-4.0204 0,-0.9289 -0.0452,-2.3199 -0.1359,-4.1815 -0.0907,-1.8576 -0.1359,-3.2486 -0.1359,-4.1775 0,-0.1526 0.0996,-0.2393 0.3035,-0.2641 1.2014,-0.1445 2.1081,-0.2188 2.7157,-0.2188 0.0907,0 0.213,0.1651 0.3762,0.4954 2.1486,4.2887 3.9937,8.1194 5.5396,11.4877 0.3627,0.7926 0.5801,1.1847 0.6526,1.1847 0.0907,0 0.2812,-0.3218 0.5711,-0.9658 1.2106,-2.6088 2.8879,-6.4807 5.0275,-11.6199 0.1405,-0.322 0.2901,-0.4829 0.4533,-0.4829 0.2991,0 0.7479,0.0165 1.3463,0.0495 0.5984,0.0331 1.0472,0.0454 1.3465,0.0454 0.2176,0 0.3264,0.0991 0.3264,0.2931 0,0.9247 -0.0317,2.3199 -0.0951,4.1773 -0.0637,1.8576 -0.0954,3.2528 -0.0954,4.1775 0,0.8875 0.0364,2.2166 0.1088,3.9916 0.0725,1.775 0.109,3.1 0.109,3.9792z"/>
  </g>
 </g>
</svg>
