<?xml version="1.0" encoding="UTF-8"?>
<!DOCTYPE svg PUBLIC "-//W3C//DTD SVG 1.1//EN" "http://www.w3.org/Graphics/SVG/1.1/DTD/svg11.dtd">
<!-- Creator: CorelDRAW 2018 (64 Bit) -->
<svg xmlns="http://www.w3.org/2000/svg" xml:space="preserve" width="45.6285mm" height="50.2558mm" version="1.1" style="shape-rendering:geometricPrecision; text-rendering:geometricPrecision; image-rendering:optimizeQuality; fill-rule:evenodd; clip-rule:evenodd"
viewBox="0 0 31.5678 34.7692"
 xmlns:xlink="http://www.w3.org/1999/xlink">
 <defs>
  <style type="text/css">
   <![CDATA[
    .fil2 {fill:#165689}
    .fil0 {fill:#F4FBFB}
    .fil1 {fill:#FC5200}
   ]]>
  </style>
 </defs>
 <g id="Camada_x0020_1">
  <metadata id="CorelCorpID_0Corel-Layer"/>
  <path class="fil0" d="M5.8481 18.7022c0.0827,-0.9668 0.1911,-1.0886 -0.3654,-1.8754l-0.6795 0.0955c0.5159,-1.212 -0.0031,-0.8535 -0.2147,-1.7105 0.6639,0.1904 1.0704,-0.2035 1.2448,-0.8062 0.5529,0.4857 0.0616,0.3222 0.6981,0.3191l0.3827 -0.72c0.562,0.5493 0.8737,0.2809 1.4677,0.2474 -0.2973,0.5466 -0.3371,0.2235 -0.1584,0.7134 0.4798,0.1996 0.2476,0.1867 0.7464,-0.206 0.2502,0.6672 -0.2055,-0.4294 0.0493,0.3114 0.2273,0.6608 0.3274,0.0647 0.6326,0.7874 -0.8517,-0.3362 -0.857,0.0257 -1.6031,-0.7132 -0.4656,-0.461 -0.7955,-0.7911 -1.2925,-0.1739 0.3964,0.6061 0.2224,0.2027 0.9373,0.5746 -0.0733,0.0377 -0.8739,0.3888 -1.0296,0.458l-0.0738 -0.829c-1.3895,-0.0973 -1.5325,0.5057 -0.8575,1.5767 0.7821,0.5098 0.4812,0.9877 0.5274,1.9196l0.3726 -0.169c-0.0726,-3.1433 1.3043,-1.4841 3.2882,-2.1974 1.3849,-0.8591 -0.7503,-3.993 -4.3895,-2.9092 -1.0356,0.3083 -1.8061,1.6083 -1.6786,2.6471 0.0814,0.6633 1.4839,2.3962 1.9958,2.6597z"/>
  <path class="fil1" d="M17.1602 16.8056c0.7885,0.3616 1.0331,0.9154 1.0746,1.7574l-1.8044 0.0697 0.7298 -1.8271zm0.2007 -4.0803c-0.7618,0.1851 -0.3636,-0.2136 -0.5277,0.4137l0.6999 0.2377c0.3456,0.7793 -0.2504,1.7167 -0.692,2.3679 -5.6725,-0.8274 -4.7514,6.9844 -0.0314,5.7981 1.5369,-0.3863 1.5167,-1.3643 2.2291,-2.2739 3.0514,-0.0603 2.5607,-2.1687 5.0962,-3.9266 0.5342,1.2298 -2.1078,1.0874 -1.5689,3.9651 0.3001,1.6025 1.9587,2.6273 3.5406,2.3599 1.635,-0.2765 2.7024,-1.9344 2.4071,-3.5518 -0.3699,-2.0265 -1.8689,-2.2997 -3.5625,-2.4821 -0.502,-1.7994 -0.6516,-3.2638 -1.7872,-3.4743 -0.8593,-0.1593 -1.0592,-0.2026 -1.1916,0.4296l1.4518 0.2844 0.2592 0.9974c-1.0564,0.0369 -4.7408,0.3038 -5.3049,-0.2604 0.144,-0.7495 0.491,-0.1187 1.1431,-0.7806l-2.1609 -0.1043zm-2.102 3.6917l1.0502 0.0079 0.0971 0.3481c-0.2687,0.7911 -0.8203,1.5639 -0.8125,2.3923l2.467 0.096c-0.1078,1.7609 -2.5918,2.1352 -3.764,0.9846 -1.3544,-1.3294 -0.5816,-3.122 0.9621,-3.8288zm10.0292 0.0356c2.6884,-0.3818 3.5115,3.6692 0.9587,4.4367 -2.5739,0.7738 -4.372,-2.6911 -1.7515,-4.2288 0.6873,1.0244 0.2022,1.7712 1.1194,2.2228 0.3352,-0.6258 -0.1109,-1.7072 -0.3266,-2.4307zm-7.4273 -1.2912l0.2596 -0.3029 0.2357 0.4607 1.1694 3.2554c-0.9608,-0.0042 -0.4224,-0.3763 -0.9267,-1.3519 -0.3171,-0.6133 -0.6582,-0.758 -1.0423,-1.2097l0.3043 -0.8517zm0.9259 -0.6232l4.9358 0.071c-0.4137,0.5881 -3.0438,3.5755 -3.5681,3.7792l-1.3676 -3.8502z"/>
  <path class="fil1" d="M18.8364 32.1701c-2.3063,1.3003 -3.146,1.8053 -5.6473,0.3364 -3.1369,-1.842 -6.4289,-3.587 -9.5101,-5.4838 -2.3711,-1.4597 -2.351,-2.4513 -2.3489,-5.0974 0.0019,-2.5016 0.0012,-5.0038 0.0001,-7.5051 -0.001,-2.3445 -0.4677,-4.3644 1.4107,-6.0301l9.3409 -5.4909c1.9978,-1.0312 3.1531,-2.2625 5.5607,-0.9938 3.1399,1.6546 6.4261,3.6978 9.5201,5.4806 2.0709,1.1934 2.9684,1.8748 2.9623,4.4663 -0.0066,2.7812 0.6103,12.2891 -0.9046,14.0482 -0.8509,0.988 -8.8925,5.4286 -10.384,6.2695zm11.8407 -23.752l-0.4493 -0.5342c-1.0914,-1.0876 -5.3985,-3.4448 -6.9694,-4.2902 -7.8607,-4.2307 -6.118,-5.3961 -15.406,0.2015 -2.4801,1.4948 -4.7929,2.5457 -6.9675,4.4024l-0.4112 0.596c-0.0802,1.3293 -0.4624,0.3385 -0.463,4.7116 -0.0002,1.7695 0,3.539 0,5.3085 0,8.1898 -0.671,7.5952 8.6008,12.6117 2.0173,1.0915 5.2162,3.5029 7.4909,3.3356 1.7339,-0.1275 5.4215,-2.6588 7.089,-3.5495 10.0143,-5.3493 8.2511,-4.1929 8.2648,-18.2553 0.0035,-3.6069 -0.1429,-2.4208 -0.7792,-4.5379z"/>
  <path class="fil2" d="M5.7323 16.7514c-0.675,-1.071 -0.532,-1.674 0.8575,-1.5767l0.0738 0.829c0.1557,-0.0692 0.9563,-0.4203 1.0296,-0.458 -0.7149,-0.3719 -0.541,0.0315 -0.9373,-0.5746 0.497,-0.6172 0.8269,-0.2871 1.2925,0.1739 0.7462,0.7389 0.7515,0.377 1.6031,0.7132 -0.3052,-0.7227 -0.4054,-0.1266 -0.6326,-0.7874 -0.2548,-0.7408 0.201,0.3558 -0.0493,-0.3114 -0.4988,0.3927 -0.2666,0.4056 -0.7464,0.206 -0.1788,-0.4899 -0.1389,-0.1668 0.1584,-0.7134 -0.5941,0.0335 -0.9058,0.3019 -1.4677,-0.2474l-0.3827 0.72c-0.6366,0.0031 -0.1452,0.1666 -0.6981,-0.3191 -0.1744,0.6027 -0.5809,0.9966 -1.2448,0.8062 0.2116,0.8571 0.7307,0.4985 0.2147,1.7105l0.6795 -0.0955c0.5565,0.7868 0.4482,0.9086 0.3654,1.8754 -0.5119,-0.2635 -1.9143,-1.9964 -1.9958,-2.6597 -0.1274,-1.0389 0.6431,-2.3388 1.6786,-2.6471 3.6392,-1.0838 5.7744,2.0501 4.3895,2.9092 -1.9839,0.7132 -3.3608,-0.9459 -3.2882,2.1974l-0.3726 0.169c-0.0462,-0.9318 0.2547,-1.4098 -0.5274,-1.9196zm-1.6465 4.3024c-0.2397,0.223 -0.2013,-0.184 -0.1962,0.4531l1.2355 0.0838 2.9032 0.121 0.4069 -1.212c1.0652,-0.1853 1.7668,0.283 2.5837,-0.2 0.1246,-0.3557 0.1466,-1.0318 0.3097,-1.6559 0.2783,-1.0647 -0.3596,-0.3373 0.6433,-1.2691 -0.4958,-1.1397 -0.8846,-0.6204 -0.9859,-2.2214 -0.1927,-3.0463 -4.0285,-3.4853 -5.9856,-2.5076 -4.1446,2.0706 -0.8019,5.7406 -0.7178,5.9149 0.514,1.0643 -0.0687,1.4758 -0.197,2.4933z"/>
 </g>
</svg>
